<svg xmlns="http://www.w3.org/2000/svg" width="656" height="380" viewBox="0 0 656 380" version="1.1">
	<path d="M 277.549 17.921 C 277.027 18.766, 291.200 35.863, 294.816 38.750 C 296.776 40.314, 315 40.506, 315 38.963 C 315 37.916, 304.771 25.003, 299.827 19.808 C 297.263 17.114, 296.766 17, 287.636 17 C 282.401 17, 277.862 17.414, 277.549 17.921 M 539.549 28.250 C 539.280 29.488, 538.934 31.625, 538.780 33 C 538.520 35.322, 538.158 35.482, 533.681 35.251 C 529.230 35.020, 528.885 35.169, 529.181 37.191 C 529.401 38.706, 530.503 39.640, 532.750 40.219 C 536.575 41.205, 536.612 41.388, 533.972 46.314 C 530.609 52.588, 533.086 53.888, 538.816 48.856 L 542.397 45.713 545.021 48.856 C 549.412 54.116, 553.873 52.439, 549.991 46.987 C 547.199 43.066, 547.747 40.822, 551.752 39.785 C 554.028 39.195, 555 38.355, 555 36.979 C 555 35.269, 554.387 35.046, 550.250 35.258 L 545.500 35.500 545.176 31.513 C 544.997 29.320, 544.322 27.190, 543.676 26.778 C 541.551 25.427, 540.046 25.964, 539.549 28.250 M 295.137 63.001 C 284.066 66.984, 274.371 77.082, 270.656 88.500 C 266.819 100.293, 267.617 120.114, 272.344 130.441 C 281.765 151.019, 308.572 159.823, 330.306 149.477 C 340.563 144.594, 349.008 133.889, 350.667 123.667 L 351.262 120 341.095 120 L 330.929 120 329.084 124.250 C 325.472 132.567, 320.338 136, 311.510 136 C 302.832 136, 296.628 132.102, 292.413 124 C 289.710 118.805, 289.186 100.996, 291.518 93.582 C 295.690 80.317, 308.275 73.709, 319.500 78.890 C 324.079 81.003, 327.413 84.315, 329.824 89.143 L 331.500 92.500 341 92.500 L 350.500 92.500 350.416 88.279 C 350.351 85.027, 349.295 82.499, 345.819 77.271 C 337.863 65.307, 328.601 60.976, 311.093 61.036 C 303.221 61.063, 299.122 61.568, 295.137 63.001 M 168.330 64.750 C 167.720 66.263, 163.776 76.500, 159.565 87.500 C 155.354 98.500, 149.405 114.025, 146.344 122 C 143.283 129.975, 139.695 139.340, 138.369 142.812 C 137.043 146.284, 136.220 149.546, 136.538 150.062 C 136.857 150.578, 141.311 151, 146.437 151 C 157.358 151, 157.332 151.018, 161.037 140.620 L 163.573 133.500 179.644 133.226 C 192.748 133.002, 195.939 133.221, 196.925 134.410 C 197.591 135.212, 199.136 139.161, 200.359 143.184 L 202.581 150.500 213.791 150.783 C 224.947 151.064, 225 151.054, 225 148.733 C 225 147.450, 224.631 145.973, 224.181 145.450 C 223.324 144.457, 222.340 141.899, 211.510 112.500 C 200.939 83.807, 194.810 67.711, 193.327 64.750 L 191.949 62 180.694 62 L 169.438 62 168.330 64.750 M 394.534 62.946 C 394.212 63.466, 396.024 70.778, 398.560 79.196 C 401.096 87.613, 406.779 106.650, 411.187 121.500 C 415.596 136.350, 419.623 149.287, 420.137 150.250 C 420.920 151.718, 422.521 152, 430.057 152 C 440.572 152, 439.776 152.870, 442.874 138 C 448.555 110.735, 451.418 98.371, 452.323 97.200 C 454.690 94.137, 456.324 99.467, 463.144 132.500 C 463.712 135.250, 464.924 140.650, 465.838 144.500 L 467.500 151.500 477.351 151.500 L 487.202 151.500 488.478 147.500 C 492.322 135.457, 495.008 126.376, 495.004 125.440 C 495.002 124.858, 496.736 119.008, 498.858 112.440 C 500.980 105.873, 503.716 97.125, 504.937 93 C 506.158 88.875, 508.697 80.577, 510.579 74.560 C 513.208 66.156, 513.712 63.435, 512.751 62.825 C 511.321 61.917, 497.562 61.742, 494.398 62.592 C 492.568 63.083, 491.614 65.969, 487.043 84.828 C 480.477 111.915, 479.700 114.429, 477.779 114.802 C 476.582 115.034, 475.849 113.304, 474.601 107.302 C 472.062 95.101, 468.085 77.182, 466.209 69.500 L 464.500 62.500 454.500 62.247 C 449 62.107, 444.015 62.332, 443.422 62.747 C 442.830 63.161, 441.373 68.225, 440.186 74 C 432.362 112.066, 431.746 114.500, 429.951 114.500 C 428.494 114.500, 427.651 111.866, 424.028 96 C 418.466 71.640, 416.634 64.408, 415.730 63.250 C 414.560 61.750, 395.442 61.476, 394.534 62.946 M 178.149 92.722 C 176.747 95.341, 171 112.986, 171 114.670 C 171 115.796, 172.836 116.018, 180.250 115.788 L 189.500 115.500 189.292 112 C 189.177 110.075, 187.585 104.678, 185.754 100.006 C 182.352 91.329, 180.066 89.139, 178.149 92.722 M 15.774 206.805 C 14.477 207.055, 14.092 209.289, 13.618 219.305 C 12.804 236.528, 13.345 363.676, 14.237 364.569 C 15.198 365.532, 37.800 365.533, 38.763 364.570 C 39.168 364.165, 39.500 334.208, 39.500 298 C 39.500 261.792, 39.787 231.880, 40.138 231.529 C 41.710 229.956, 606.826 231.732, 608.822 233.316 C 609.907 234.177, 610.015 245.780, 609.422 298.016 C 609.025 333.024, 609.001 362.867, 609.369 364.334 L 610.038 367 621.319 367 C 628.760 367, 633.008 366.592, 633.800 365.800 C 634.713 364.887, 635 345.893, 635 286.420 L 635 208.239 578.750 207.595 C 522.029 206.945, 18.708 206.239, 15.774 206.805" stroke="none" fill="#000000" fill-rule="evenodd"/>
</svg>