<svg xmlns="http://www.w3.org/2000/svg" width="600" height="600" viewBox="0 0 600 600" version="1.1">
	<path d="M 149 213.905 C 132.916 217.478, 116.953 224.409, 101 234.748 C 88.834 242.632, 84.674 246.074, 85.868 247.268 C 86.530 247.930, 88.997 246.918, 93.225 244.248 C 114.734 230.663, 135.649 223.487, 151.721 224.175 C 162.274 224.627, 166.973 226.614, 171.214 232.419 C 174.042 236.290, 174.173 236.900, 173.761 244.283 C 173.375 251.199, 172.759 253.204, 168.223 262.283 C 165.416 267.902, 161.180 275.128, 158.810 278.339 L 154.500 284.178 153.900 278.063 C 152.902 267.900, 146.311 263.062, 133.410 263.022 C 102.122 262.925, 53.363 296.518, 36.643 329.691 C 35.204 332.546, 33.067 338.377, 31.895 342.650 C 26.638 361.814, 33.240 377.999, 48.826 384.153 C 57.024 387.391, 72.545 387.393, 83 384.159 C 119.541 372.855, 163.845 331.731, 188.003 286.692 C 206.623 251.979, 204.663 225.302, 182.772 215.478 C 174.451 211.744, 161.455 211.138, 149 213.905 M 237.072 262.250 C 235.760 267.337, 234.484 272.063, 234.236 272.750 C 233.887 273.720, 237.812 274, 251.782 274 C 267.472 274, 270.042 274.224, 271.833 275.750 C 274.343 277.889, 274.600 279.206, 273.656 285.114 L 272.918 289.727 258.709 290.273 C 238.002 291.070, 226.847 295.191, 215.936 306.077 C 208.325 313.670, 205.628 319.474, 205.159 329.271 C 204.830 336.131, 205.105 337.694, 207.502 342.594 C 210.678 349.085, 215.944 353.346, 223.504 355.544 C 227.568 356.726, 233.797 356.980, 253.469 356.768 L 278.302 356.500 288.150 320 C 299.003 279.771, 299.917 273.650, 296.161 266.346 C 293.575 261.317, 289.560 257.598, 284 255.081 C 279.960 253.252, 277.453 253.042, 259.479 253.022 L 239.458 253 237.072 262.250 M 328.188 255.033 C 317.223 258.929, 308.633 267.761, 305.478 278.386 C 300.997 293.476, 306.545 303.114, 325.890 313.842 C 337.010 320.009, 340 322.845, 340 327.227 C 340 329.614, 339.219 331.386, 337.422 333.076 C 334.918 335.431, 334.285 335.514, 315.209 336 L 295.573 336.500 293.442 344 C 292.270 348.125, 291.008 352.738, 290.637 354.250 L 289.962 357 311.799 357 C 336.089 357, 340.164 356.314, 348.440 350.832 C 360.696 342.714, 367.489 321.582, 361.541 310.079 C 358.916 305.004, 352.306 299.483, 342.161 293.892 C 331.937 288.258, 327 284.223, 327 281.500 C 327 280.590, 328.315 278.531, 329.923 276.923 L 332.846 274 350.314 274 L 367.781 274 369.840 266.250 C 370.973 261.988, 372.196 257.262, 372.558 255.750 L 373.217 253 353.358 253.073 C 336.566 253.135, 332.680 253.437, 328.188 255.033 M 389.100 256.750 C 388.563 258.813, 382.674 281.425, 376.013 307 C 369.353 332.575, 363.670 354.288, 363.384 355.250 C 362.911 356.845, 363.882 357, 374.365 357 C 384.442 357, 385.933 356.783, 386.412 355.250 C 387.261 352.537, 413 254.007, 413 253.473 C 413 253.213, 407.842 253, 401.539 253 L 390.077 253 389.100 256.750 M 455.216 255.019 C 441.878 258.513, 428.922 266.794, 420.042 277.500 C 417.761 280.250, 413.883 286.550, 411.424 291.500 C 398.148 318.230, 403.632 343.910, 424.730 353.796 C 430.125 356.324, 431.552 356.522, 446.689 356.835 L 462.877 357.170 463.993 352.835 C 464.606 350.451, 465.759 346.181, 466.554 343.346 C 467.349 340.511, 468 337.699, 468 337.096 C 468 336.366, 464.213 336, 456.649 336 C 450.406 336, 443.769 335.488, 441.899 334.862 C 436.440 333.034, 431.912 329.054, 429.762 324.195 C 426.913 317.754, 427.620 306.341, 431.339 298.740 C 439.209 282.654, 453.975 274, 473.551 274 L 482.923 274 484.032 269.750 C 484.643 267.413, 485.785 263.281, 486.571 260.568 C 487.357 257.856, 488 255.044, 488 254.318 C 488 252.135, 464.288 252.642, 455.216 255.019 M 513.500 254.399 C 500.798 258.416, 492.698 266.173, 489.008 277.855 C 486.408 286.085, 486.487 290.356, 489.351 296.507 C 492.128 302.471, 496.360 306.381, 506.200 312.077 C 523.335 321.995, 524.932 323.647, 523.010 329.470 C 522.366 331.420, 520.863 333.574, 519.670 334.258 C 518.241 335.076, 510.851 335.671, 498.017 336 L 478.534 336.500 475.808 346.500 C 474.308 352, 473.063 356.642, 473.041 356.815 C 473.018 356.989, 483.699 356.989, 496.776 356.815 L 520.552 356.500 527.190 353.229 C 530.842 351.431, 535.290 348.294, 537.077 346.260 C 542.085 340.555, 546.197 330.598, 546.771 322.780 C 547.202 316.910, 546.920 315.357, 544.541 310.494 C 541.418 304.110, 536.305 299.847, 523.001 292.532 C 518.326 289.962, 513.714 287.146, 512.751 286.274 C 510.219 283.983, 510.550 279.359, 513.455 276.455 C 515.874 274.035, 516.162 274, 533.416 274 L 550.923 274 552.032 269.750 C 552.643 267.413, 553.785 263.281, 554.571 260.568 C 555.357 257.856, 556 255.044, 556 254.318 C 556 252.493, 519.307 252.562, 513.500 254.399 M 122 275.889 C 109.436 279.959, 96.428 288.398, 85.672 299.456 C 76.936 308.438, 72.714 315.807, 72.195 322.981 C 71.814 328.245, 72.031 329.003, 74.810 332.111 C 77.738 335.385, 78.092 335.500, 85.246 335.500 C 91.961 335.500, 93.462 335.099, 101.334 331.198 C 117.780 323.048, 138.397 304.790, 143.476 293.879 C 146.103 288.236, 146.708 282.192, 144.970 278.945 C 142.304 273.962, 132.128 272.609, 122 275.889 M 243.764 311.996 C 238.435 313.600, 234.143 317.073, 231.988 321.524 C 229.386 326.899, 229.970 331.045, 233.749 334.017 C 236.087 335.856, 237.532 336.031, 248.317 335.779 L 260.290 335.500 263.491 323.763 C 265.252 317.308, 266.462 311.795, 266.180 311.513 C 265.357 310.691, 246.769 311.091, 243.764 311.996 M 556.313 337.176 C 548.913 339.146, 546.455 348.609, 551.923 354.077 C 559.224 361.378, 572.100 354.503, 569.621 344.626 C 568.166 338.829, 562.346 335.571, 556.313 337.176 M 553.712 340.012 C 550.336 342.668, 549.434 347.004, 551.447 350.897 C 555.920 359.548, 568 356.571, 568 346.818 C 568 339.185, 559.756 335.258, 553.712 340.012 M 555 346.441 C 555 349.434, 555.450 352.160, 556 352.500 C 556.567 352.851, 557 352.010, 557 350.559 C 557 346.925, 560.662 347.060, 562.182 350.750 C 563.129 353.049, 563.386 353.196, 563.751 351.644 C 563.991 350.623, 563.728 349.328, 563.165 348.765 C 562.469 348.069, 562.500 347.172, 563.262 345.953 C 564.881 343.359, 562.555 341, 558.378 341 L 555 341 555 346.441 M 557 345.070 C 557 346.641, 557.539 347.062, 559.240 346.820 C 562.564 346.345, 562.856 343, 559.573 343 C 557.638 343, 557 343.513, 557 345.070" stroke="none" fill="#000000" fill-rule="evenodd"/>
</svg>