<svg xmlns="http://www.w3.org/2000/svg" width="3000" height="2000" viewBox="0 0 3000 2000" version="1.1">
	<path d="M 2270.500 866.511 C 2246.909 870.299, 2230.447 878.363, 2216.826 892.801 C 2203.586 906.836, 2195.884 924.760, 2191.817 951 C 2189.980 962.858, 2189.969 1042.038, 2191.804 1054 C 2199.028 1101.101, 2220.769 1124.460, 2265.039 1132.685 C 2279.673 1135.404, 2317.206 1135.168, 2334 1132.252 C 2348.469 1129.739, 2362.136 1126.299, 2373.500 1122.309 L 2381.500 1119.500 2381.757 1053.750 L 2382.014 988 2337.007 988 L 2292 988 2292 1009 L 2292 1030 2310.500 1030 L 2329 1030 2329 1059.377 L 2329 1088.754 2324.250 1090.788 C 2317.470 1093.692, 2309.138 1095.002, 2297.566 1094.985 C 2265.712 1094.938, 2252.780 1081.390, 2249.040 1044.144 C 2247.683 1030.635, 2247.706 976.707, 2249.075 962.096 C 2251.204 939.364, 2256.771 924.289, 2266.400 915.183 C 2273.980 908.014, 2280.788 905.656, 2294 905.621 C 2302.873 905.598, 2305.318 905.956, 2309.779 907.933 C 2319.355 912.175, 2325.977 921.936, 2327.633 934.250 L 2328.272 939 2355.636 939 L 2383 939 2383 933.947 C 2383 921.612, 2376.262 903.486, 2367.965 893.500 C 2358.273 881.835, 2343.310 872.981, 2325.500 868.375 C 2316.972 866.170, 2312.851 865.736, 2297.500 865.427 C 2285.014 865.177, 2276.743 865.509, 2270.500 866.511 M 1641.399 867.456 C 1598.918 874.055, 1575.395 898.947, 1566.702 946.500 C 1564.668 957.621, 1564.508 961.576, 1564.508 1000.500 C 1564.508 1039.774, 1564.654 1043.309, 1566.769 1054.962 C 1574.909 1099.832, 1596.292 1124.175, 1635 1132.638 C 1641.718 1134.107, 1647.693 1134.494, 1663.500 1134.486 C 1685.515 1134.474, 1693.663 1133.292, 1708.133 1128.011 C 1736.277 1117.740, 1752.619 1094.714, 1755.541 1061.217 L 1756.258 1053 1728.350 1053 L 1700.442 1053 1699.190 1062.250 C 1697.100 1077.684, 1691.111 1087.603, 1681 1092.376 C 1674.736 1095.333, 1655.969 1095.452, 1648.528 1092.583 C 1637.307 1088.255, 1629.850 1077.049, 1625.675 1058.245 C 1623.622 1049, 1623.511 1046.039, 1623.511 1000.500 C 1623.511 955.097, 1623.627 951.986, 1625.649 943 C 1628.829 928.871, 1631.489 922.721, 1637.050 916.635 C 1643.711 909.348, 1649.773 906.773, 1661.606 906.209 C 1683.243 905.176, 1694.143 914.233, 1697.156 935.750 L 1698.312 944 1726.285 944 L 1754.258 944 1753.551 935.889 C 1750.562 901.631, 1731.103 878.420, 1698.408 870.114 C 1682.004 865.947, 1658.244 864.839, 1641.399 867.456 M 1061 1000.506 L 1061 1132.013 1136.250 1131.756 L 1211.500 1131.500 1211.770 1110.760 L 1212.041 1090.019 1164.270 1089.760 L 1116.500 1089.500 1116.238 1053.250 L 1115.975 1017 1159.488 1017 L 1203 1017 1203 996.011 L 1203 975.021 1159.750 974.761 L 1116.500 974.500 1116.500 943 L 1116.500 911.500 1162.250 911.240 L 1208 910.980 1208 889.990 L 1208 869 1134.500 869 L 1061 869 1061 1000.506 M 346.246 1000.750 L 346.500 1131.500 393 1131.799 C 463.400 1132.251, 480.717 1130.470, 499.936 1120.803 C 515.128 1113.161, 525.702 1099.919, 530.522 1082.500 C 533.035 1073.421, 533.640 1049.388, 531.578 1040.600 C 525.903 1016.414, 507.129 999.857, 481.169 996.143 C 478.601 995.776, 476.593 995.068, 476.708 994.571 C 476.822 994.074, 480.197 992.846, 484.208 991.842 C 514.832 984.177, 530.585 962.085, 528.524 929.691 C 526.241 893.803, 506.989 875.565, 466.637 871.066 C 461.015 870.439, 434.203 870, 401.536 870 L 345.993 870 346.246 1000.750 M 646.612 871.750 C 646.324 872.712, 629.845 930.875, 609.992 1001 C 590.139 1071.125, 573.662 1129.295, 573.375 1130.266 C 572.886 1131.928, 574.484 1132.016, 600.656 1131.766 L 628.457 1131.500 635.130 1108 C 638.801 1095.075, 642.525 1081.912, 643.406 1078.750 L 645.008 1073 685.254 1073.005 L 725.500 1073.010 733.885 1102.505 L 742.271 1132 771.135 1132 C 796.147 1132, 800 1131.799, 800 1130.498 C 800 1129.280, 735.941 900.653, 728.903 876.750 L 726.915 870 687.025 870 C 649.900 870, 647.098 870.121, 646.612 871.750 M 858 1001 L 858 1132 930.500 1132 L 1003 1132 1003 1111.010 L 1003 1090.021 958.250 1089.760 L 913.500 1089.500 913.246 979.750 L 912.991 870 885.496 870 L 858 870 858 1001 M 1286.246 1000.739 L 1286.500 1131.500 1311.342 1131.768 L 1336.184 1132.035 1335.630 1026.268 C 1335.326 968.095, 1334.789 918.362, 1334.438 915.750 C 1333.115 905.917, 1335.789 911.645, 1341.440 930.750 C 1347.908 952.615, 1354.022 970.079, 1388.795 1066 L 1412.539 1131.500 1452.770 1131.761 L 1493 1132.023 1493 1001.011 L 1493 870 1468.364 870 L 1443.728 870 1444.193 977 C 1444.449 1035.850, 1444.285 1084, 1443.829 1084 C 1443.373 1084, 1442.998 1083.213, 1442.995 1082.250 C 1442.982 1078.076, 1433.641 1044.035, 1428.107 1028 C 1424.786 1018.375, 1410.626 979, 1396.642 940.500 L 1371.215 870.500 1328.604 870.239 L 1285.993 869.979 1286.246 1000.739 M 1815.246 1000.750 L 1815.500 1131.500 1843 1131.500 L 1870.500 1131.500 1870.754 1000.750 L 1871.007 870 1843 870 L 1814.993 870 1815.246 1000.750 M 1963.730 999.750 C 1943.519 1071.112, 1926.986 1130.063, 1926.991 1130.750 C 1926.998 1131.719, 1933.149 1132, 1954.388 1132 L 1981.776 1132 1990.084 1102.500 L 1998.393 1073 2038.677 1073 L 2078.962 1073 2079.540 1075.250 C 2079.859 1076.487, 2083.585 1089.650, 2087.820 1104.500 L 2095.522 1131.500 2124.874 1131.765 C 2148.196 1131.976, 2154.137 1131.771, 2153.794 1130.765 C 2153.556 1130.069, 2136.968 1071.114, 2116.931 999.754 L 2080.500 870.007 2040.489 870.004 L 2000.479 870 1963.730 999.750 M 2500 870.434 C 2500 870.846, 2427.708 1126.076, 2426.404 1130.266 C 2425.887 1131.929, 2427.476 1132.016, 2453.678 1131.766 L 2481.500 1131.500 2488.652 1106.500 C 2492.585 1092.750, 2496.304 1079.588, 2496.916 1077.250 L 2498.029 1073 2538.338 1073 L 2578.648 1073 2586.966 1102.500 L 2595.284 1132 2624.083 1132 C 2639.923 1132, 2653.055 1131.662, 2653.266 1131.250 C 2653.478 1130.838, 2637.151 1072, 2616.985 1000.500 L 2580.320 870.500 2540.160 870.239 C 2518.072 870.095, 2500 870.183, 2500 870.434 M 402 943.029 L 402 976.214 424.750 975.750 C 450.273 975.230, 454.565 974.404, 462.266 968.523 C 465.279 966.222, 467.802 963.068, 469.668 959.267 C 472.284 953.940, 472.499 952.622, 472.481 942 C 472.463 931.534, 472.225 930.051, 469.830 925.500 C 466.470 919.117, 463.916 916.781, 456.497 913.308 C 450.519 910.509, 450.421 910.499, 426.250 910.172 L 402 909.844 402 943.029 M 685.559 912.107 C 685.022 913.640, 655 1032.053, 655 1032.637 C 655 1032.837, 668.950 1033, 686 1033 C 703.050 1033, 717 1032.697, 717 1032.327 C 717 1031.957, 711.753 1011.145, 705.339 986.077 C 698.926 961.010, 692.214 934.050, 690.423 926.167 C 687.116 911.606, 686.430 909.621, 685.559 912.107 M 2038.141 914.623 C 2030.338 944.725, 2009 1030.260, 2009 1031.435 C 2009 1032.821, 2012.496 1033, 2039.500 1033 C 2066.227 1033, 2070 1032.810, 2070 1031.468 C 2070 1030.625, 2064.193 1007.113, 2057.095 979.218 C 2049.997 951.323, 2043.418 924.900, 2042.475 920.500 C 2041.532 916.100, 2040.398 912.105, 2039.953 911.623 C 2039.509 911.140, 2038.693 912.490, 2038.141 914.623 M 2538.613 912 C 2538.327 912.825, 2531.522 939.600, 2523.492 971.500 C 2515.462 1003.400, 2508.661 1030.287, 2508.378 1031.250 C 2507.897 1032.890, 2509.816 1033, 2538.933 1033 C 2557.316 1033, 2570 1032.622, 2570 1032.074 C 2570 1031.565, 2563.967 1007.378, 2556.594 978.324 C 2549.220 949.271, 2542.646 922.800, 2541.985 919.500 C 2540.534 912.255, 2539.401 909.734, 2538.613 912 M 402 1053.923 L 402 1092 423.290 1092 C 445.781 1092, 452.200 1091.115, 460.500 1086.871 C 471.760 1081.113, 478.028 1069.043, 477.984 1053.201 C 477.938 1036.261, 470.578 1024.182, 457 1018.765 C 451.966 1016.756, 449.404 1016.540, 426.750 1016.208 L 402 1015.846 402 1053.923" stroke="none" fill="#000000" fill-rule="evenodd"/>
</svg>