<svg xmlns="http://www.w3.org/2000/svg" width="225" height="225" viewBox="0 0 225 225" version="1.1">
	<path d="M 106 52.465 C 106 54.783, 106.360 55.100, 108.681 54.822 L 111.361 54.500 111.101 60.975 C 110.957 64.536, 110.625 67.798, 110.361 68.225 C 110.098 68.651, 111.449 69, 113.364 69 L 116.846 69 116.279 61.500 C 115.967 57.375, 115.972 54, 116.291 54 C 116.609 54, 118.024 54.439, 119.435 54.975 C 121.760 55.859, 122 55.719, 122 53.475 C 122 51.099, 121.744 51, 115.582 51 C 112.052 51, 108.452 50.727, 107.582 50.393 C 106.382 49.933, 106 50.433, 106 52.465 M 126.899 51.899 C 126.843 52.230, 126.638 54.272, 126.443 56.437 C 126.249 58.603, 125.002 62.471, 123.673 65.033 L 121.256 69.691 124.449 70.845 C 128.952 72.474, 129 72.443, 129 68 C 129 63.854, 129.469 63.379, 131.991 64.973 C 133.294 65.797, 133.257 66.295, 131.696 68.937 L 129.912 71.958 133.206 73.337 C 135.018 74.095, 136.671 74.571, 136.880 74.395 C 137.088 74.218, 137.419 72.189, 137.614 69.884 C 137.810 67.580, 138.928 63.715, 140.099 61.295 C 141.271 58.875, 142.065 56.755, 141.864 56.583 C 140.853 55.717, 137 54, 136.066 54 C 135.480 54, 135 55.623, 135 57.607 C 135 60.485, 134.680 61.091, 133.418 60.607 C 132.548 60.273, 131.648 60, 131.418 60 C 131.188 60, 131 59.325, 131 58.500 C 131 57.675, 131.398 57, 131.883 57 C 132.369 57, 132.979 56.190, 133.238 55.199 C 133.590 53.851, 132.865 53.134, 130.354 52.348 C 128.509 51.771, 126.954 51.569, 126.899 51.899 M 93 53.143 L 89.500 54.080 89.628 63.085 C 89.698 68.037, 90.015 72.348, 90.331 72.665 C 90.648 72.981, 92.085 72.945, 93.525 72.583 C 95.824 72.006, 96.063 71.565, 95.492 68.963 C 94.933 66.420, 95.136 66, 96.921 66 C 98.472 66, 99 66.635, 99 68.500 C 99 71.073, 99.861 71.412, 103.750 70.370 C 105.801 69.820, 107.111 66.003, 105.250 65.998 C 103.806 65.995, 99 57.265, 99 54.645 C 99 51.807, 98.481 51.677, 93 53.143 M 70.141 62.931 L 65.782 65.734 68.026 67.306 C 70.712 69.187, 75 76.440, 75 79.102 C 75 81.411, 78.203 81.666, 80 79.500 C 80.685 78.675, 81.795 78, 82.467 78 C 84.146 78, 87 74.693, 87 72.748 C 87 71.871, 85.930 69.881, 84.621 68.327 C 83.313 66.772, 82.176 65.275, 82.093 65 C 82.011 64.725, 81.679 63.487, 81.355 62.250 C 80.526 59.078, 75.676 59.372, 70.141 62.931 M 94.275 62 C 94.171 63.375, 94.741 64, 96.097 64 C 97.760 64, 97.902 63.686, 97 62 C 96.411 60.900, 95.591 60, 95.178 60 C 94.764 60, 94.358 60.900, 94.275 62 M 147.405 61.750 C 146.329 65.288, 143.559 70.183, 141.185 72.745 L 138.747 75.376 141.090 77.274 C 143.432 79.170, 143.433 79.170, 144.466 76.289 C 145.820 72.515, 149.941 66, 150.975 66 C 152.425 66, 153.065 62.783, 151.895 61.373 C 150.312 59.467, 148.042 59.657, 147.405 61.750 M 74.446 65.087 C 74.077 65.685, 74.236 66.636, 74.800 67.200 C 76.062 68.462, 78 67.396, 78 65.441 C 78 63.757, 75.426 63.501, 74.446 65.087 M 157.100 67.300 C 156.495 67.905, 156 68.827, 156 69.349 C 156 70.451, 148.945 77.500, 147.842 77.500 C 147.434 77.500, 146.588 78.012, 145.963 78.637 C 145.114 79.486, 145.284 80.309, 146.635 81.887 C 149.109 84.776, 150.669 84.540, 152.500 81 C 153.353 79.350, 154.490 78, 155.026 78 C 156.265 78, 156.291 77.789, 154.359 83.461 C 152.729 88.244, 152.734 88.291, 155.091 90.069 C 157.423 91.828, 160 91.177, 160 88.828 C 160 87.548, 166.465 81, 167.729 81 C 168.293 81, 169.255 80.398, 169.865 79.663 C 170.715 78.639, 170.371 77.759, 168.403 75.913 L 165.830 73.500 163.994 75.763 C 162.984 77.008, 161.959 78.583, 161.716 79.263 C 161.473 79.944, 160.973 80.223, 160.605 79.885 C 160.237 79.546, 160.474 77.257, 161.131 74.798 C 162.221 70.724, 162.144 70.144, 160.264 68.264 C 158.763 66.763, 157.900 66.500, 157.100 67.300 M 78.336 71.567 C 77.545 73.629, 79.618 75.782, 81.033 74.367 C 82.178 73.222, 81.314 70, 79.862 70 C 79.353 70, 78.667 70.705, 78.336 71.567 M 104.500 77.653 C 102.359 78.228, 96 83.865, 96 85.189 C 96 85.626, 94.987 87.144, 93.750 88.560 C 92.513 89.976, 91.146 92.792, 90.713 94.817 C 89.625 99.914, 89.387 117.901, 90.283 127.337 C 90.969 134.552, 91.349 135.555, 95.077 139.977 C 98.182 143.659, 99.614 144.652, 101.213 144.234 C 102.496 143.899, 103.757 144.315, 104.490 145.317 C 105.213 146.306, 107.880 147.203, 111.281 147.603 C 116.551 148.223, 117.136 148.067, 121.191 144.960 C 127.859 139.851, 134.013 133.780, 135.614 130.734 C 136.862 128.359, 136.874 127.368, 135.699 123.734 C 134.688 120.611, 134.514 116.885, 135.033 109.537 C 135.810 98.555, 135.547 97.033, 131.406 88.576 C 127.219 80.027, 123.678 77.726, 114.184 77.389 C 109.958 77.239, 105.600 77.358, 104.500 77.653 M 47.686 87.446 C 45.104 92.066, 45.169 93, 48.074 93 C 49.031 93, 51.769 95.161, 54.157 97.803 C 59.940 104.199, 60.356 104.361, 62.345 100.993 C 64.027 98.146, 64.013 98.070, 61.569 96.790 C 59.773 95.849, 59.328 95.087, 59.969 94.050 C 60.662 92.928, 61.376 92.850, 63.225 93.693 C 65.328 94.651, 65.790 94.430, 67.344 91.724 C 69.581 87.826, 68.484 87.036, 60.809 87.015 C 57.679 87.007, 54.841 86.552, 54.503 86.005 C 54.165 85.458, 53.050 84.562, 52.025 84.014 C 50.441 83.166, 49.791 83.680, 47.686 87.446 M 166.116 88.404 C 159.230 91.375, 158.266 93.046, 160.536 98.079 C 162.577 102.606, 164.743 103.570, 169.412 102.029 C 172.606 100.975, 172.734 100.757, 171.729 98.094 C 170.968 96.077, 170.147 95.410, 168.844 95.751 C 167.842 96.013, 167.250 96.595, 167.528 97.045 C 167.805 97.494, 167.525 98.176, 166.905 98.559 C 165.729 99.285, 164.042 97.380, 164.015 95.297 C 164.007 94.635, 166.105 93.163, 168.677 92.025 C 172.343 90.403, 173.529 90.231, 174.162 91.228 C 175.291 93.007, 175.193 94.769, 173.943 95.186 C 172.473 95.676, 173.904 99, 175.584 99 C 176.337 99, 177.677 97.896, 178.561 96.547 C 180.051 94.274, 180.034 93.852, 178.334 90.797 C 175.195 85.155, 174.129 84.946, 166.116 88.404 M 98.321 91.990 C 95.705 94.796, 95.310 97.521, 97.403 98.324 C 99.053 98.957, 115.706 97.482, 118.250 96.477 C 122.069 94.969, 119.088 90.422, 113.718 89.565 C 106.701 88.444, 100.753 89.381, 98.321 91.990 M 54 90.878 C 54 91.360, 54.635 92.282, 55.411 92.926 C 56.480 93.813, 56.996 93.816, 57.539 92.937 C 57.934 92.299, 57.636 91.384, 56.878 90.904 C 55.104 89.780, 54 89.770, 54 90.878 M 102.879 101.967 C 100.575 104.271, 99.786 104.606, 99.349 103.467 C 98.496 101.245, 96 101.712, 96 104.094 C 96 105.346, 96.803 106.397, 98 106.710 C 99.100 106.998, 100 108.055, 100 109.060 C 100 110.065, 100.840 111.475, 101.866 112.193 C 102.892 112.912, 103.679 113.950, 103.616 114.500 C 103.552 115.050, 104.513 115.644, 105.750 115.820 C 107.461 116.063, 108 115.644, 108 114.070 C 108 112.931, 108.420 112, 108.933 112 C 109.446 112, 110.136 111.146, 110.467 110.103 C 110.878 108.811, 111.696 108.369, 113.035 108.719 C 116.113 109.524, 115.450 106.620, 111.632 102.571 C 109.779 100.607, 107.720 99, 107.055 99 C 106.390 99, 104.511 100.335, 102.879 101.967 M 108 105.500 C 108 105.775, 108.225 106, 108.500 106 C 108.775 106, 109 105.775, 109 105.500 C 109 105.225, 108.775 105, 108.500 105 C 108.225 105, 108 105.225, 108 105.500 M 91.108 158.250 C 91.244 162.431, 89.414 169.362, 88.053 169.816 C 87.474 170.009, 87 171.029, 87 172.083 C 87 173.607, 87.717 174, 90.500 174 C 93.722 174, 94 173.762, 94 171 C 94 168.667, 94.444 168, 96 168 C 97.556 168, 98 168.667, 98 171 C 98 173.762, 98.278 174, 101.500 174 C 104.333 174, 105 173.619, 105 172 C 105 170.900, 104.603 170, 104.119 170 C 102.908 170, 100.555 161.125, 100.871 157.750 C 101.121 155.078, 100.984 155, 96.065 155 L 91.001 155 91.108 158.250 M 107.500 164.500 L 107.500 174 110.838 174 L 114.176 174 113.500 170 C 112.841 166.101, 112.897 166, 115.712 166 C 119.431 166, 121 164.368, 121 160.500 C 121 156.115, 119.388 155, 113.050 155 L 107.500 155 107.500 164.500 M 124.500 164.500 L 124.500 174 130.750 174 C 136.807 174, 137 173.920, 137 171.412 C 137 168.947, 136.810 168.856, 133 169.500 C 129.729 170.053, 129 169.886, 129 168.588 C 129 167.490, 129.926 167, 132 167 C 134.533 167, 135 166.611, 135 164.500 C 135 162.389, 134.533 162, 132 162 C 130 162, 129 161.500, 129 160.500 C 129 159.417, 130.111 159, 133 159 C 136.333 159, 137 158.667, 137 157 C 137 155.213, 136.333 155, 130.750 155 L 124.500 155 124.500 164.500 M 113 160.500 C 113 161.333, 113.889 162, 115 162 C 116.111 162, 117 161.333, 117 160.500 C 117 159.667, 116.111 159, 115 159 C 113.889 159, 113 159.667, 113 160.500 M 94.710 164 C 94.322 165.483, 94.680 166, 96.094 166 C 98.198 166, 98.270 165.867, 97.393 163.582 C 96.559 161.408, 95.338 161.599, 94.710 164" stroke="none" fill="#000000" fill-rule="evenodd"/>
</svg>