<svg xmlns="http://www.w3.org/2000/svg" width="217" height="232" viewBox="0 0 217 232" version="1.1">
	<path d="M 125.209 33.457 C 106.779 37.658, 90.039 50.979, 80.588 68.965 C 75.736 78.198, 73.993 85.644, 74.036 96.960 C 74.077 108.047, 75.656 115.557, 79.776 124.267 C 88.020 141.693, 105.245 153.370, 128 156.960 C 137.802 158.506, 183.935 158.333, 184.543 156.748 C 184.807 156.060, 184.906 137.497, 184.762 115.498 C 184.514 77.631, 184.412 75.661, 182.843 78.521 C 178.519 86.402, 171.592 90.339, 162.329 90.181 C 152.594 90.015, 145.048 85.149, 141.553 76.782 C 139.642 72.207, 139.538 63.039, 141.348 58.718 C 145.834 48.013, 158.953 42.092, 168.500 46.464 L 171.500 47.838 168.500 47.923 C 156.265 48.269, 151.638 65.064, 161.615 72.912 C 165.576 76.027, 173.864 75.827, 177.794 72.520 C 186.823 64.923, 184.022 51.313, 171.461 41.747 C 161.364 34.058, 139.648 30.166, 125.209 33.457 M 93.885 166.750 C 93.308 170.518, 93.408 185.041, 94.017 186.028 C 94.447 186.723, 95.519 187.015, 96.399 186.677 C 97.634 186.203, 98 184.613, 98 179.714 L 98 173.364 101.531 173.642 C 103.473 173.795, 105.541 174.216, 106.125 174.577 C 107.193 175.237, 106.866 180.531, 105.497 184.750 C 104.868 186.689, 105.122 187, 107.336 187 C 109.454 187, 110.089 186.340, 110.947 183.250 C 112.287 178.428, 112.265 176.676, 110.829 173.523 C 109.506 170.621, 106.624 169.592, 101.497 170.190 C 98.397 170.552, 98 170.338, 98 168.299 C 98 166.667, 97.420 166, 96 166 C 94.900 166, 93.948 166.338, 93.885 166.750 M 159 168 C 159 169.111, 158.333 170, 157.500 170 C 156.667 170, 156 170.889, 156 172 C 156 173.111, 156.667 174, 157.500 174 C 158.681 174, 159 175.397, 159 180.573 C 159 186.294, 159.227 187.103, 160.750 186.813 C 162.151 186.546, 162.559 185.249, 162.796 180.302 C 163.078 174.417, 163.221 174.109, 165.796 173.812 C 169.410 173.395, 169.375 170.601, 165.750 170.184 C 163.807 169.960, 163 169.300, 163 167.934 C 163 166.667, 162.310 166, 161 166 C 159.667 166, 159 166.667, 159 168 M 174.290 168 C 174.002 169.100, 173.144 170, 172.383 170 C 170.560 170, 170.603 172.679, 172.443 173.708 C 173.387 174.237, 173.992 176.585, 174.193 180.508 C 174.425 185.031, 174.868 186.500, 176 186.500 C 177.140 186.500, 177.571 185.014, 177.796 180.310 C 178.091 174.151, 178.108 174.118, 181.288 173.810 C 183.381 173.607, 184.598 172.896, 184.815 171.750 C 185.081 170.348, 184.436 170, 181.573 170 C 178.667 170, 178 169.627, 178 168 C 178 166.837, 177.333 166, 176.406 166 C 175.530 166, 174.577 166.900, 174.290 168 M 33.872 171.654 C 31.786 174.168, 32.115 182.365, 34.405 184.895 C 35.960 186.614, 37.474 187, 42.655 187 C 48.333 187, 49 186.790, 49 185 C 49 183.283, 48.328 182.998, 44.250 182.985 C 38.745 182.967, 37.290 182.269, 36.988 179.500 C 36.434 174.425, 36.749 174.113, 42.740 173.800 C 47.268 173.563, 48.551 173.130, 48.814 171.750 C 49.105 170.219, 48.276 170, 42.196 170 C 36.950 170, 34.908 170.406, 33.872 171.654 M 53 171.962 C 53 173.818, 53.624 174, 60 174 C 63.850 174, 67.001 174.338, 67.002 174.750 C 67.003 175.162, 64.286 175.347, 60.965 175.159 C 53.563 174.742, 50 176.597, 50 180.868 C 50 185.898, 52.602 187.119, 62.624 186.791 L 71.500 186.500 71.500 178.500 L 71.500 170.500 62.250 170.212 C 53.516 169.941, 53 170.039, 53 171.962 M 74.693 172.250 C 73.913 175.607, 74.680 185.080, 75.826 186.226 C 77.970 188.370, 79 185.680, 79 177.941 C 79 170.818, 78.805 170, 77.108 170 C 75.968 170, 75.009 170.894, 74.693 172.250 M 80 171.760 C 80 173.074, 80.808 173.517, 83.194 173.510 C 85.775 173.502, 86.502 173.978, 86.987 175.995 C 87.318 177.367, 88.355 178.637, 89.294 178.818 C 90.630 179.075, 91 178.415, 91 175.773 C 91 171.309, 89.481 170, 84.300 170 C 80.862 170, 80 170.353, 80 171.760 M 116 171.962 C 116 173.818, 116.624 174, 123 174 C 126.850 174, 130.001 174.338, 130.002 174.750 C 130.003 175.162, 127.286 175.347, 123.965 175.159 C 116.127 174.717, 113 176.539, 113 181.548 C 113 186.132, 115.659 187.171, 126.414 186.788 L 134.500 186.500 134.500 178.500 L 134.500 170.500 125.250 170.212 C 116.516 169.941, 116 170.039, 116 171.962 M 137.667 170.667 C 136.429 171.905, 136.966 183.571, 138.348 185.462 C 140.779 188.786, 142 186.272, 142 177.941 C 142 170.907, 141.791 170, 140.167 170 C 139.158 170, 138.033 170.300, 137.667 170.667 M 143 171.500 C 143 172.325, 143.863 173, 144.918 173 C 148.110 173, 150 174.116, 150 176 C 150 177.481, 151.814 179, 153.582 179 C 153.812 179, 154 177.441, 154 175.535 C 154 171.496, 151.990 170, 146.566 170 C 144.063 170, 143 170.447, 143 171.500 M 55.500 180 C 54.255 182.015, 56.245 183, 61.559 183 C 66.333 183, 67 182.755, 67 181 C 67 179.245, 66.333 179, 61.559 179 C 58.566 179, 55.840 179.450, 55.500 180 M 119.122 179.881 C 116.557 181.547, 119.091 183, 124.559 183 C 129.155 183, 130 182.717, 130 181.179 C 130 179.699, 129.110 179.323, 125.250 179.172 C 122.638 179.070, 119.880 179.389, 119.122 179.881 M 180.446 184.087 C 180.077 184.685, 180.236 185.636, 180.800 186.200 C 182.062 187.462, 184 186.396, 184 184.441 C 184 182.757, 181.426 182.501, 180.446 184.087 M 54.435 195.599 C 55.419 199.518, 55.920 199.830, 57.582 197.557 C 58.816 195.870, 59 195.837, 59 197.309 C 59 200.094, 61.725 199.218, 62.295 196.250 C 62.980 192.683, 62.308 192.047, 61.085 195.105 C 60.429 196.743, 60.107 196.966, 60.063 195.809 C 59.961 193.072, 58.060 192.679, 57.055 195.186 C 56.400 196.820, 56.108 197.003, 56.063 195.809 C 56.029 194.879, 55.484 193.799, 54.854 193.410 C 54.037 192.905, 53.917 193.532, 54.435 195.599 M 63.905 194.615 C 62.756 195.998, 62.895 196.497, 64.875 198.100 C 68.618 201.130, 73.145 197.545, 69.800 194.200 C 68.121 192.521, 65.489 192.706, 63.905 194.615 M 72 195.937 C 72 198.993, 73.423 200.119, 74.292 197.750 C 74.658 196.750, 75.015 196.750, 76.075 197.750 C 78.084 199.646, 78.712 199.273, 78.601 196.250 C 78.515 193.904, 78.023 193.454, 75.250 193.187 C 72.222 192.895, 72 193.083, 72 195.937 M 80.086 196 C 80.045 198.590, 80.279 199.110, 80.985 198 C 81.771 196.764, 82.293 196.720, 83.956 197.750 C 86.838 199.536, 87.576 199.294, 85.669 197.186 C 84.403 195.787, 84.299 195.101, 85.214 194.186 C 85.994 193.406, 86.031 193, 85.322 193 C 84.730 193, 83.648 193.719, 82.920 194.597 C 81.716 196.047, 81.527 196.024, 80.867 194.347 C 80.344 193.018, 80.125 193.481, 80.086 196 M 90.232 196 C 90.232 197.925, 90.438 198.713, 90.689 197.750 C 90.941 196.787, 90.941 195.213, 90.689 194.250 C 90.438 193.287, 90.232 194.075, 90.232 196 M 92 196 C 92 197.650, 92.450 199, 93 199 C 93.550 199, 94 198.255, 94 197.345 C 94 195.805, 94.127 195.805, 95.829 197.345 C 98.448 199.715, 99.013 199.422, 98.900 195.750 C 98.814 192.934, 98.713 192.813, 98.142 194.845 L 97.483 197.191 95.586 195.095 C 92.983 192.219, 92 192.467, 92 196 M 103.015 196.286 C 103.024 198.054, 103.361 199.005, 103.765 198.399 C 104.935 196.647, 110 196.029, 110 197.639 C 110 198.387, 110.450 199, 111 199 C 111.550 199, 112 198.550, 112 198 C 112 197.450, 112.675 197, 113.500 197 C 114.325 197, 115 197.450, 115 198 C 115 198.550, 115.383 199, 115.851 199 C 116.319 199, 116.656 197.762, 116.601 196.250 C 116.502 193.554, 116.368 193.496, 109.750 193.286 L 103 193.073 103.015 196.286 M 118.667 193.667 C 117.362 194.972, 118.029 197.945, 119.845 198.917 C 121.184 199.634, 122.312 199.469, 123.954 198.320 C 125.674 197.115, 126.398 197.026, 126.967 197.947 C 127.380 198.614, 128.983 199.012, 130.531 198.830 C 134.017 198.421, 135.140 195.994, 131.833 196.015 C 129.960 196.028, 129.796 196.222, 131 197 C 132.205 197.779, 132.044 197.972, 130.177 197.985 C 128.490 197.996, 127.952 197.520, 128.212 196.250 C 128.474 194.975, 129.375 194.576, 131.536 194.779 C 133.808 194.992, 134.150 194.821, 133 194.044 C 130.819 192.570, 128.431 192.775, 126.948 194.563 C 125.771 195.981, 125.569 195.981, 124.775 194.563 C 123.899 192.998, 119.920 192.414, 118.667 193.667 M 135 195.937 C 135 197.621, 135.477 199, 136.059 199 C 136.641 199, 136.840 198.550, 136.500 198 C 136.160 197.450, 136.557 197, 137.382 197 C 138.207 197, 139.160 197.450, 139.500 198 C 140.639 199.842, 141.593 199.026, 141.546 196.250 C 141.507 193.890, 141.039 193.456, 138.250 193.187 C 135.222 192.895, 135 193.083, 135 195.937 M 143 196.052 L 143 199 149.500 199 C 154.441 199, 156 198.660, 156 197.583 C 156 196.804, 154.762 195.676, 153.250 195.077 L 150.500 193.988 153.334 194.534 C 155.018 194.859, 155.927 194.691, 155.575 194.121 C 155.249 193.593, 152.286 193.149, 148.991 193.133 C 143.018 193.104, 143 193.113, 143 196.052 M 157 194.532 C 157 195.375, 158.012 196.513, 159.250 197.060 L 161.500 198.056 159.250 197.622 C 158.012 197.383, 157 197.595, 157 198.094 C 157 198.592, 158.350 199, 160 199 C 163.842 199, 163.998 196.562, 160.250 195.077 L 157.500 193.988 160.334 194.534 C 162.158 194.886, 162.939 194.710, 162.525 194.040 C 161.498 192.379, 157 192.780, 157 194.532 M 66.088 194.945 C 65.349 195.402, 65.053 196.277, 65.431 196.888 C 66.254 198.219, 68.663 198.355, 69.430 197.113 C 70.281 195.737, 67.610 194.005, 66.088 194.945 M 74.500 195 C 74.160 195.550, 74.610 196, 75.500 196 C 76.390 196, 76.840 195.550, 76.500 195 C 76.160 194.450, 75.710 194, 75.500 194 C 75.290 194, 74.840 194.450, 74.500 195 M 119.960 195.548 C 119.025 196.674, 119.105 197.103, 120.339 197.577 C 122.026 198.224, 124 197.400, 124 196.048 C 124 194.473, 121.146 194.120, 119.960 195.548 M 137.500 195 C 135.592 195.820, 135.603 195.863, 137.750 195.930 C 138.988 195.968, 140 195.550, 140 195 C 140 194.450, 139.887 194.032, 139.750 194.070 C 139.613 194.109, 138.600 194.527, 137.500 195 M 146.643 195.511 C 146.920 196.234, 146.326 197.029, 145.323 197.279 C 144.321 197.528, 146.200 197.716, 149.500 197.696 C 152.800 197.676, 154.600 197.463, 153.500 197.222 C 152.400 196.982, 150.892 196.290, 150.149 195.686 C 148.185 194.089, 146.056 193.983, 146.643 195.511 M 104.750 195.662 C 105.438 195.940, 106.563 195.940, 107.250 195.662 C 107.938 195.385, 107.375 195.158, 106 195.158 C 104.625 195.158, 104.063 195.385, 104.750 195.662 M 112.750 195.662 C 113.438 195.940, 114.563 195.940, 115.250 195.662 C 115.938 195.385, 115.375 195.158, 114 195.158 C 112.625 195.158, 112.063 195.385, 112.750 195.662" stroke="none" fill="#000000" fill-rule="evenodd"/>
</svg>