<svg xmlns="http://www.w3.org/2000/svg" width="3000" height="2000" viewBox="0 0 3000 2000" version="1.1">
	<path d="M 1285.500 333.662 C 1125.989 338.457, 978.370 424.616, 895.027 561.566 L 886.036 576.339 940.768 604.653 C 1018.651 644.943, 1020.172 645.697, 1020.707 644.246 C 1021.849 641.149, 1039.697 615.225, 1047.136 605.858 C 1056.942 593.512, 1076.996 572.787, 1089.500 562.078 C 1140.673 518.248, 1199.398 492.849, 1268 484.877 C 1273.775 484.206, 1288.625 483.680, 1301 483.710 C 1325.423 483.767, 1342.902 485.394, 1364 489.572 C 1375.548 491.859, 1399.844 498.338, 1402.751 499.906 C 1403.605 500.366, 1401.024 504.310, 1394.637 512.302 C 1372.643 539.827, 1355.742 566.404, 1339.887 598.396 C 1294.950 689.068, 1280.646 790.495, 1298.621 891 C 1312.482 968.506, 1347.974 1044.708, 1398.149 1104.690 C 1401.917 1109.195, 1405 1113.114, 1405 1113.398 C 1405 1115.140, 1371.068 1123.426, 1351.500 1126.463 C 1304.949 1133.686, 1263.410 1131.671, 1218.358 1120.004 C 1141.894 1100.204, 1075.300 1052.357, 1030.108 984.751 L 1022.922 974.002 1004.711 983.364 C 922.312 1025.723, 890.010 1042.630, 890.006 1043.404 C 889.996 1044.961, 904.478 1067.981, 913.029 1080 C 1003.267 1206.838, 1146.038 1281.016, 1299.895 1280.998 C 1376.099 1280.989, 1446.794 1263.937, 1513.942 1229.369 L 1532.384 1219.875 1536.942 1222.471 C 1547.117 1228.265, 1569.465 1239.185, 1581.600 1244.293 C 1625.675 1262.844, 1667.501 1273.472, 1719 1279.209 C 1737.144 1281.230, 1795.792 1280.875, 1814.500 1278.631 C 1903.522 1267.954, 1980.650 1237.122, 2049.936 1184.513 C 2069.570 1169.605, 2079.118 1161.136, 2100 1140.107 C 2119.099 1120.874, 2135.934 1101.113, 2149.776 1081.679 C 2158.655 1069.213, 2173.985 1045.046, 2173.994 1043.500 C 2173.999 1042.639, 2142.827 1026.278, 2060.305 983.830 L 2041.109 973.956 2033.907 984.728 C 1984.905 1058.015, 1911.599 1107.498, 1827 1124.390 C 1804.906 1128.801, 1788.389 1130.364, 1764 1130.348 C 1735.327 1130.330, 1713.087 1127.787, 1686.708 1121.509 C 1676.080 1118.980, 1659.998 1114.331, 1659.234 1113.567 C 1658.992 1113.325, 1661.923 1109.386, 1665.748 1104.813 C 1752.437 1001.189, 1789.282 862.143, 1765.989 726.517 C 1752.655 648.883, 1719.177 574.489, 1669.893 512.977 C 1665.102 506.997, 1660.922 501.682, 1660.603 501.166 C 1659.969 500.140, 1670.869 496.541, 1686.500 492.616 C 1698.249 489.665, 1716.265 486.539, 1731 484.893 C 1744.806 483.351, 1782.734 483.344, 1796 484.881 C 1862.617 492.598, 1920.456 517.027, 1970.668 558.651 C 1983.227 569.062, 2006.281 592.604, 2016.543 605.497 C 2024.672 615.711, 2043 642.445, 2043 644.089 C 2043 644.590, 2043.486 645, 2044.080 645 C 2044.844 645, 2175.740 577.958, 2177.716 576.554 C 2178.769 575.807, 2154.775 538.918, 2143.208 523.500 C 2124.004 497.900, 2092.751 464.636, 2070.500 446.113 C 1976.424 367.796, 1863.062 328.856, 1744.250 334.045 C 1669.752 337.299, 1601.008 356.833, 1536.302 393.136 L 1532.103 395.492 1525.302 391.676 C 1502.331 378.789, 1473.643 366.178, 1447.500 357.476 C 1395.765 340.255, 1339.813 332.030, 1285.500 333.662 M 1522.569 595.050 C 1476.790 646.383, 1449.300 709.248, 1442.951 777.127 C 1441.146 796.419, 1442.162 834.900, 1444.968 853.500 C 1450.680 891.376, 1464.091 931.068, 1482.097 963.391 C 1494.110 984.955, 1511.784 1009.786, 1525.948 1025 L 1532 1031.500 1538.052 1025 C 1546.151 1016.301, 1559.542 999.039, 1567.402 987.168 C 1596.938 942.556, 1614.364 894.629, 1620.549 841 C 1622.862 820.939, 1622.122 779.396, 1619.111 760.250 C 1609.106 696.639, 1583.822 643.095, 1540.726 594.250 C 1536.238 589.163, 1532.325 585.008, 1532.033 585.018 C 1531.740 585.028, 1527.481 589.542, 1522.569 595.050 M 603.636 1340.009 C 541.781 1345.881, 487.730 1389.631, 467.563 1450.148 C 461.043 1469.712, 459.627 1478.975, 459.560 1502.500 C 459.493 1526.040, 460.482 1533.120, 466.616 1553 C 483.874 1608.930, 531.118 1652.187, 587.259 1663.463 C 653.715 1676.810, 721.825 1645.041, 755.856 1584.822 L 759.064 1579.145 734.373 1561.480 C 720.793 1551.764, 709.174 1543.620, 708.553 1543.382 C 707.932 1543.144, 706.386 1545.084, 705.118 1547.694 C 698.182 1561.970, 684.139 1578.188, 671.122 1586.953 C 663.089 1592.363, 652.515 1597.271, 642.933 1600.038 C 633.451 1602.776, 613.152 1603.783, 602.404 1602.049 C 551.695 1593.869, 514.840 1544.293, 520.875 1492.379 C 525.805 1449.963, 554.199 1417.157, 595.825 1405.783 C 606.043 1402.990, 630.058 1402.714, 640.237 1405.272 C 669.492 1412.624, 692.777 1431.604, 705.228 1458.250 C 706.963 1461.963, 708.673 1465, 709.027 1465 C 711.392 1465, 759 1430.311, 759 1428.588 C 759 1426.989, 750.801 1413.302, 744.465 1404.322 C 741.817 1400.570, 734.217 1392.080, 727.575 1385.456 C 708.836 1366.765, 689.918 1355.114, 665.236 1347.063 C 645.898 1340.754, 623.182 1338.153, 603.636 1340.009 M 825 1501 L 825 1660 855.500 1660 L 886 1660 886 1590.500 L 886 1521 966.500 1521 L 1047 1521 1047 1590.500 L 1047 1660 1078 1660 L 1109 1660 1109 1501 L 1109 1342 1078 1342 L 1047 1342 1047 1399.500 L 1047 1457 966.500 1457 L 886 1457 886 1399.500 L 886 1342 855.500 1342 L 825 1342 825 1501 M 1299.103 1343.808 C 1298.329 1345.254, 1161.176 1654.236, 1159.304 1658.750 C 1158.895 1659.737, 1166.544 1659.997, 1195.643 1659.988 L 1232.500 1659.976 1246.500 1628.738 L 1260.500 1597.500 1343 1597.269 L 1425.500 1597.037 1439.580 1628.269 L 1453.659 1659.500 1490.441 1659.762 C 1525.215 1660.011, 1527.187 1659.929, 1526.562 1658.262 C 1526.199 1657.293, 1494.326 1585.737, 1455.733 1499.250 L 1385.564 1342 1342.817 1342 C 1302.611 1342, 1300.013 1342.107, 1299.103 1343.808 M 1577.667 1342.667 C 1577.300 1343.033, 1577 1414.583, 1577 1501.667 L 1577 1660 1608.496 1660 L 1639.992 1660 1640.246 1540.811 L 1640.500 1421.622 1726.389 1540.811 L 1812.278 1660 1837.139 1660 L 1862 1660 1862 1501 L 1862 1342 1831.005 1342 L 1800.010 1342 1799.755 1437.438 L 1799.500 1532.875 1731.521 1437.438 L 1663.542 1342 1620.938 1342 C 1597.505 1342, 1578.033 1342.300, 1577.667 1342.667 M 1974 1501 L 1974 1660 2096.500 1660 L 2219 1660 2219 1628.500 L 2219 1597 2127.500 1597 L 2036 1597 2036 1565.500 L 2036 1534 2110 1534 L 2184 1534 2184 1502 L 2184 1470 2110 1470 L 2036 1470 2036 1438 L 2036 1406 2116 1406 L 2196 1406 2196 1374 L 2196 1342 2085 1342 L 1974 1342 1974 1501 M 2306 1501 L 2306 1660 2423.500 1660 L 2541 1660 2541 1628.500 L 2541 1597 2454.500 1597 L 2368 1597 2368 1469.500 L 2368 1342 2337 1342 L 2306 1342 2306 1501 M 1316 1469.224 C 1301.425 1503.373, 1289.355 1531.918, 1289.177 1532.657 C 1288.909 1533.769, 1298.335 1534, 1343.927 1534 C 1380.989 1534, 1399 1533.664, 1399 1532.972 C 1399 1531.740, 1344.174 1408.799, 1343.186 1407.817 C 1342.809 1407.442, 1330.575 1435.075, 1316 1469.224" stroke="none" fill="#000000" fill-rule="evenodd"/>
</svg>