<svg xmlns="http://www.w3.org/2000/svg" width="728" height="621" viewBox="0 0 728 621" version="1.1">
	<path d="M 513.686 9.598 C 511.928 10.556, 509.789 10.893, 507.985 10.497 C 506.114 10.086, 503.579 10.535, 500.777 11.774 C 498.174 12.926, 495.669 13.404, 494.478 12.978 C 492.159 12.147, 491.718 12.298, 475.738 19.393 C 445.220 32.942, 442.390 34.573, 415.019 54.402 C 400.658 64.807, 390.376 74.248, 381.805 84.902 C 374.828 93.575, 363.295 110.536, 360.059 116.882 L 357.825 121.264 351.738 115.382 C 348.390 112.147, 344.942 108.776, 344.075 107.891 C 340.163 103.895, 322.998 89.108, 318.314 85.699 C 315.462 83.623, 309.663 80.141, 305.427 77.962 C 295.830 73.026, 283.559 64.262, 275.822 56.820 C 270.399 51.603, 269.630 51.186, 266.401 51.710 C 263.554 52.172, 262.599 51.873, 261.386 50.140 C 260.561 48.963, 259.215 48, 258.394 48 C 257.574 48, 254.191 46.088, 250.877 43.750 C 245.122 39.691, 244.474 39.484, 236.475 39.149 C 228.934 38.834, 227.941 38.559, 226.526 36.399 C 224.670 33.567, 223.324 33.397, 220.803 35.678 C 219.174 37.153, 218.192 37.216, 212.724 36.195 C 199.234 33.678, 199.875 33.641, 189.419 37.534 C 174.905 42.939, 159.027 49.709, 154.865 52.266 C 144.331 58.740, 119.045 81.370, 119.010 84.356 C 119.005 84.827, 117.656 86.909, 116.014 88.983 C 111.900 94.176, 89.793 131.290, 83.540 143.500 C 76.878 156.508, 75.776 162.566, 76.480 182.287 C 78.241 231.581, 80.094 250.506, 84.488 264.100 C 86.390 269.982, 88.420 276.978, 89.001 279.647 C 90.952 288.619, 107.739 329.032, 112.382 335.935 C 113.702 337.896, 117.368 344.450, 120.530 350.500 C 128.796 366.316, 132.084 371.121, 141.298 380.850 C 149.190 389.183, 151.498 392.519, 164.555 414.466 C 167.816 419.948, 173.639 427.823, 177.495 431.966 C 181.351 436.110, 192.226 448.275, 201.662 459 C 222.234 482.383, 225.731 486.045, 233.512 492.358 C 236.805 495.030, 248.637 505.605, 259.804 515.858 C 270.971 526.111, 282.514 536.525, 285.455 539 C 288.396 541.475, 295.385 547.550, 300.984 552.500 C 306.584 557.450, 314.391 564.334, 318.333 567.797 C 322.275 571.261, 328.529 575.920, 332.231 578.150 C 335.934 580.381, 340.910 584.209, 343.291 586.658 L 347.619 591.111 357.059 590.167 C 362.252 589.648, 371.900 589.447, 378.500 589.720 C 385.838 590.025, 392.637 589.764, 396 589.048 C 399.025 588.404, 403.648 587.534, 406.274 587.115 C 411.673 586.252, 411.075 586.756, 417.340 577.803 C 419.917 574.119, 424.527 568.719, 427.583 565.803 C 445.506 548.700, 476.466 515.769, 504.436 484.057 C 507.561 480.514, 516.237 469.489, 523.715 459.557 C 531.193 449.626, 541.259 437.450, 546.085 432.500 C 558.341 419.926, 570.434 405.586, 574.756 398.500 C 576.769 395.200, 584.249 383.725, 591.377 373 C 607.460 348.803, 616.932 332.940, 640.038 291.500 C 644.811 282.941, 662.676 237.684, 664.355 229.900 C 665.233 225.830, 666.650 217.550, 667.504 211.500 C 668.358 205.450, 669.695 196.900, 670.474 192.500 C 671.254 188.100, 672.205 179.068, 672.588 172.430 L 673.286 160.360 669.008 147.430 C 666.655 140.318, 660.560 125.950, 655.464 115.500 L 646.198 96.500 628.471 79.705 C 618.721 70.468, 609.114 62.065, 607.122 61.031 C 605.130 59.998, 597.875 54.595, 591 49.025 C 584.125 43.455, 577.150 38.304, 575.500 37.578 C 571.759 35.932, 568.540 32.392, 567.322 28.584 C 566.570 26.232, 565.380 25.340, 561.170 23.967 C 558.300 23.031, 555.175 21.578, 554.226 20.738 C 553.276 19.897, 548.503 16.860, 543.618 13.988 C 534.911 8.870, 534.554 8.759, 525.618 8.416 C 518.788 8.153, 515.794 8.450, 513.686 9.598 M 472.688 165.415 C 468.527 166.308, 465.975 167.564, 463.707 169.832 C 460.062 173.476, 461.501 174.071, 467.698 171.482 C 471.103 170.059, 471.466 170.089, 473.464 171.966 C 474.637 173.068, 477.150 174.260, 479.048 174.616 C 483.836 175.513, 487.809 178.085, 493.079 183.700 C 503.324 194.616, 505.815 200.545, 508.162 219.592 C 509.838 233.200, 509.206 235.120, 500.136 243.987 C 495.909 248.119, 489.599 253.157, 486.113 255.182 C 480.040 258.710, 479.475 258.843, 472.637 258.347 C 457.354 257.239, 446.623 248.864, 437.813 231.170 C 432.977 221.459, 432.506 219.916, 432.572 214 C 432.612 210.425, 432.963 205.700, 433.352 203.500 L 434.059 199.500 430.996 203 C 418.212 217.608, 414.432 224.589, 413.634 235.066 C 412.973 243.733, 410.768 253.958, 407.974 261.310 C 406.914 264.099, 406.149 266.470, 406.274 266.578 C 406.398 266.686, 411.900 267.966, 418.500 269.422 C 425.100 270.878, 432.525 272.688, 435 273.445 C 441.928 275.564, 450.667 276.037, 463.126 274.968 C 482.103 273.340, 494.250 269.940, 495.533 265.897 C 496.504 262.837, 498.944 261, 502.037 261 C 505.863 261, 518.213 250.626, 535.636 232.776 C 550.544 217.503, 559.755 205.675, 564.642 195.528 C 568.656 187.195, 568.974 183.437, 565.750 182.437 C 562.957 181.571, 557.937 179.323, 542.091 171.843 C 531.591 166.886, 528.362 165.834, 521.091 165.001 C 509.241 163.643, 479.768 163.895, 472.688 165.415 M 208.500 167.674 C 198.992 168.861, 189.897 171.577, 184 174.993 C 174.624 180.423, 163.259 185.459, 155.714 187.526 C 149.735 189.165, 142.796 193.575, 137.184 199.305 L 132.868 203.710 133.995 214.105 C 134.857 222.052, 135.673 225.324, 137.459 228 C 138.744 229.925, 141.922 235.100, 144.520 239.500 C 147.575 244.674, 152.822 251.150, 159.372 257.831 C 181.383 280.283, 192.816 285.070, 224.460 285.083 C 242.823 285.091, 257.729 283.225, 270.811 279.279 C 277.494 277.263, 282.328 276.559, 291.750 276.226 C 298.488 275.989, 304 275.377, 304 274.867 C 304 274.357, 302.881 271.282, 301.514 268.033 C 298.105 259.933, 294 245.463, 294 241.545 C 294 235.105, 287.076 219.213, 278.428 205.804 C 273.862 198.724, 264.414 188.253, 263.456 189.211 C 263.144 189.523, 263.998 192.078, 265.354 194.889 C 268.063 200.505, 267.973 200.984, 264.770 198 C 262.548 195.930, 259 195.284, 259 196.949 C 259 197.471, 260.607 199.124, 262.571 200.622 C 264.534 202.120, 267.292 205.630, 268.699 208.423 C 270.106 211.215, 272.099 214.694, 273.128 216.154 C 275.400 219.376, 275.498 221.844, 273.471 224.738 C 272.554 226.047, 272.185 227.888, 272.548 229.337 C 273.077 231.442, 272.856 231.698, 270.827 231.332 C 268.886 230.982, 267.837 231.951, 264.500 237.178 C 258.978 245.827, 237.960 266.992, 234.859 267.026 C 233.562 267.041, 230.700 267.867, 228.500 268.863 C 225.369 270.281, 223.740 270.468, 221 269.727 C 212.232 267.353, 207.367 263.343, 205.824 257.217 C 205.115 254.401, 202.324 249.820, 197.949 244.295 C 190.363 234.711, 189.750 232.841, 189.918 219.792 C 190.049 209.640, 190.167 209.233, 195.079 202 C 203.248 189.971, 217.501 179.604, 228.339 177.808 L 234.871 176.726 228.186 173.333 C 224.509 171.468, 220.375 169.286, 219 168.485 C 216.558 167.063, 214.604 166.912, 208.500 167.674" stroke="none" fill="#000000" fill-rule="evenodd"/>
</svg>