<svg xmlns="http://www.w3.org/2000/svg" width="900" height="512" viewBox="0 0 900 512" version="1.1">
	<path d="M 201 256 L 201 368 450 368 L 699 368 699 256 L 699 144 450 144 L 201 144 201 256 M 235 255.500 L 235 324.053 249.750 323.777 L 264.500 323.500 264.500 296.250 L 264.500 268.999 288.250 269 L 312 269 312 296.527 L 312 324.053 326.750 323.777 L 341.500 323.500 341.500 255.500 L 341.500 187.500 326.750 187.223 L 312 186.947 312 213.973 L 312 241 288.516 241 L 265.033 241 264.766 214.250 L 264.500 187.500 249.750 187.223 L 235 186.947 235 255.500 M 404.667 187.667 C 403.602 188.731, 403.936 284.770, 405.031 292.500 C 406.426 302.348, 408.881 308.583, 413.370 313.683 C 421.529 322.952, 429.687 324.970, 459 324.970 C 488.498 324.970, 496.453 322.973, 504.824 313.462 C 513.339 303.789, 514.113 297.135, 513.774 236.500 L 513.500 187.500 499 187.500 L 484.500 187.500 484 239.646 C 483.526 289.085, 483.401 291.901, 481.600 293.890 C 478.702 297.091, 473.752 297.989, 459 297.989 C 442.730 297.989, 438.605 297.040, 435.952 292.689 C 434.093 289.640, 434.007 287.246, 434.004 238.250 L 434 187 419.667 187 C 411.783 187, 405.033 187.300, 404.667 187.667 M 576.460 188.250 C 576.197 188.938, 576.099 219.650, 576.241 256.500 L 576.500 323.500 591.250 323.777 L 606 324.053 606 296.546 L 606 269.038 628.250 268.769 L 650.500 268.500 650.778 254.750 L 651.056 241 628.528 241 L 606 241 606 228.015 L 606 215.030 635.250 214.765 L 664.500 214.500 664.778 200.750 L 665.056 187 620.997 187 C 586.671 187, 576.832 187.276, 576.460 188.250" stroke="none" fill="#000000" fill-rule="evenodd"/>
</svg>