<svg xmlns="http://www.w3.org/2000/svg" width="800" height="800" viewBox="0 0 800 800" version="1.1">
	<path d="M 210.974 213.703 C 206.985 214.045, 206.287 214.472, 205.090 217.296 C 201.960 224.683, 201.052 226.884, 197.994 234.500 C 196.227 238.900, 193.705 244.876, 192.391 247.780 C 191.076 250.683, 190 253.694, 190 254.471 C 190 255.247, 189.600 256.129, 189.111 256.432 C 188.622 256.734, 187.926 258.160, 187.564 259.601 C 187.202 261.042, 186.054 264.084, 185.011 266.360 C 183.170 270.382, 177.819 283.348, 173.811 293.500 C 172.725 296.250, 171.153 300.075, 170.316 302 C 160.695 324.151, 136.208 387.379, 136.728 388.733 C 137.096 389.694, 141.761 390, 156.018 390 L 174.822 390 176.812 385.750 C 180.422 378.041, 181.791 374.702, 190.038 353.500 C 202.371 321.793, 207.741 310.341, 209.467 312.068 C 210.141 312.742, 210.500 326.365, 210.500 351.300 L 210.500 389.500 229.500 389.784 C 239.950 389.940, 249.400 389.845, 250.500 389.573 C 251.600 389.301, 253.123 387.598, 253.884 385.789 C 254.645 383.980, 255.928 380.925, 256.736 379 C 257.543 377.075, 258.601 374.600, 259.087 373.500 C 259.573 372.400, 261.251 368.350, 262.815 364.500 C 269.406 348.275, 290.292 297.261, 291.474 294.500 C 292.180 292.850, 295.311 284.975, 298.432 277 C 301.553 269.025, 304.484 261.600, 304.945 260.500 C 306.380 257.077, 314.705 235.851, 317.495 228.500 C 318.956 224.650, 320.619 220.271, 321.190 218.768 C 323.291 213.237, 322.833 213.103, 302.491 213.310 L 283.873 213.500 282.521 216 C 280.824 219.139, 278.753 223.940, 276.050 231 C 274.892 234.025, 273.540 237.400, 273.045 238.500 C 272.550 239.600, 270.794 244.100, 269.142 248.500 C 261.320 269.336, 254.030 283.755, 251.963 282.477 C 251.540 282.216, 251.130 266.851, 251.053 248.334 C 250.976 229.818, 250.714 214.346, 250.471 213.954 C 250.015 213.215, 218.959 213.018, 210.974 213.703 M 349.639 214.327 C 348.244 215.395, 346.824 218.210, 339.974 233.500 C 338.741 236.250, 336.714 240.750, 335.468 243.500 C 334.223 246.250, 331.990 251.425, 330.506 255 C 329.023 258.575, 327.124 263.075, 326.286 265 C 325.448 266.925, 324.111 270.075, 323.314 272 C 320.975 277.649, 320.287 279.302, 318.735 283 C 315.518 290.667, 299.273 331.840, 292.301 350 C 290.929 353.575, 289.435 357.400, 288.981 358.500 C 283.904 370.822, 278.027 387.629, 278.429 388.676 C 279.144 390.538, 316.301 390.608, 317.688 388.750 C 318.781 387.284, 318.220 388.649, 334.855 347 C 341.995 329.125, 352.189 303.925, 357.510 291 C 368.163 265.122, 381.514 231.070, 384.920 221.092 C 386.603 216.160, 386.821 214.508, 385.869 213.919 C 383.785 212.631, 351.378 212.996, 349.639 214.327 M 411.762 214.311 C 410.963 214.965, 409.722 217.075, 409.004 219 C 407.746 222.377, 405.734 227.332, 403.930 231.500 C 403.454 232.600, 400.786 239.350, 398 246.500 C 392.752 259.970, 392.015 261.805, 390.165 266 C 389.559 267.375, 388.221 270.750, 387.191 273.500 C 385.265 278.643, 368.844 319.141, 366.512 324.500 C 365.794 326.150, 363.771 331.100, 362.017 335.500 C 358.156 345.183, 357.663 346.400, 355.534 351.500 C 354.616 353.700, 353.505 356.400, 353.066 357.500 C 352.627 358.600, 351.765 360.625, 351.151 362 C 348.022 369.008, 341 386.404, 341 387.148 C 341 387.616, 350.400 388, 361.889 388 L 382.778 388 386.489 377.750 C 399.214 342.605, 399.697 341.378, 405.773 328.759 C 407.823 324.502, 409.950 321.164, 410.500 321.342 C 411.579 321.691, 412.292 326.366, 413.972 344.113 C 416.202 367.678, 416.973 374.685, 418.051 381.190 L 419.160 387.880 453.032 388.190 C 477.717 388.416, 487.228 388.826, 488.103 389.702 C 489.672 391.273, 488.177 391.853, 470.500 396.535 C 462.800 398.574, 452.450 401.352, 447.500 402.708 C 442.550 404.064, 431.975 406.896, 424 409.002 C 416.025 411.108, 405.900 413.794, 401.500 414.971 C 397.100 416.148, 387.425 418.713, 380 420.671 C 328.899 434.151, 326.175 434.878, 297.500 442.721 C 266.150 451.295, 229.471 459.321, 205 462.964 C 190.223 465.163, 170.273 465.443, 161.089 463.580 C 133.465 457.977, 117.124 438.762, 113.694 407.851 C 111.551 388.547, 116.100 360.811, 124.288 343.252 C 126.214 339.122, 124.455 340.025, 120.318 345.289 C 116.209 350.519, 106.936 361.031, 84.366 386.050 C 56.291 417.169, 40.608 440.518, 31.671 464.500 C 17.020 503.816, 21.771 542.962, 44.039 566.405 C 52.066 574.854, 60.201 579.638, 72.545 583.169 C 83.952 586.431, 111.194 586.400, 127.934 583.105 C 147.215 579.310, 171.174 572.301, 191.500 564.509 C 221.886 552.860, 256.482 539.311, 260.780 537.377 C 263.683 536.070, 266.275 535, 266.538 535 C 266.980 535, 311.026 516.774, 319 513.291 C 320.925 512.451, 323.850 511.192, 325.500 510.494 C 330.520 508.372, 357.300 496.862, 360.500 495.452 C 362.150 494.724, 373.175 489.873, 385 484.670 C 396.825 479.467, 408.975 474.077, 412 472.693 C 415.025 471.308, 421.550 468.384, 426.500 466.194 C 431.450 464.005, 438.425 460.870, 442 459.227 C 445.575 457.585, 452.550 454.435, 457.500 452.227 C 467.272 447.870, 474.623 444.530, 485.500 439.505 C 489.350 437.727, 494.637 435.311, 497.250 434.136 C 499.863 432.961, 504.137 431.039, 506.750 429.864 C 511.461 427.746, 520.493 423.594, 533 417.800 C 541.381 413.917, 548.249 410.783, 554.500 407.989 C 557.250 406.760, 563.257 404.010, 567.849 401.877 C 572.441 399.745, 576.328 398, 576.486 398 C 576.644 398, 580.987 396.028, 586.136 393.617 C 591.286 391.206, 597.750 388.231, 600.500 387.005 C 603.250 385.779, 607.750 383.761, 610.500 382.521 C 613.250 381.281, 617.750 379.267, 620.500 378.044 C 623.250 376.822, 628.200 374.573, 631.500 373.047 C 634.800 371.521, 639.075 369.581, 641 368.735 C 642.925 367.890, 648.482 365.354, 653.349 363.099 C 658.216 360.845, 662.346 359, 662.526 359 C 662.706 359, 666.264 357.425, 670.431 355.500 C 674.599 353.575, 678.200 352, 678.434 352 C 678.669 352, 681.817 350.650, 685.430 349 C 689.044 347.350, 694.956 344.650, 698.570 343 C 702.183 341.350, 705.322 340, 705.545 340 C 705.768 340, 708.774 338.707, 712.225 337.126 C 715.676 335.546, 722.421 332.630, 727.214 330.646 C 732.006 328.663, 738.278 325.906, 741.151 324.520 C 744.024 323.134, 746.965 322, 747.687 322 C 748.409 322, 749 321.550, 749 321 C 749 319.752, 747.502 319.720, 745.236 320.919 C 743.646 321.761, 731.360 325.422, 715 329.929 C 711.425 330.914, 699.725 334.258, 689 337.359 C 678.275 340.460, 667.700 343.500, 665.500 344.115 C 663.300 344.729, 660.375 345.615, 659 346.083 C 657.625 346.551, 652.900 347.889, 648.500 349.057 C 639.147 351.538, 636.583 352.239, 628.500 354.521 C 621.333 356.544, 620.194 356.853, 603.500 361.295 C 556.928 373.686, 561 372.791, 561 370.627 C 561 369.872, 561.942 367.124, 563.094 364.521 C 564.667 360.963, 564.903 359.503, 564.041 358.644 C 563.248 357.852, 555.847 357.500, 539.999 357.500 C 514.962 357.500, 513.952 357.284, 515.811 352.326 C 516.394 350.772, 518.260 345.675, 519.957 341 C 526.364 323.356, 529.937 315.677, 532.871 313.250 C 533.965 312.345, 539.712 312, 553.666 312 L 572.950 312 574.975 307.500 C 580.133 296.037, 580.872 294.240, 582.033 290.325 C 584.161 283.153, 584.384 283.242, 563.904 283.144 C 553.868 283.096, 545.294 282.694, 544.850 282.250 C 544.036 281.436, 556.609 249.772, 559.494 245.369 C 561.043 243.005, 561.085 243, 581.544 243 L 602.043 243 603.163 240.250 C 603.779 238.738, 605.045 235.700, 605.975 233.500 C 612.114 218.986, 613.192 215.942, 612.672 214.587 C 612.163 213.262, 606.990 213.067, 572.407 213.071 C 550.583 213.074, 531.968 213.482, 531.042 213.977 C 530.116 214.473, 528.542 216.818, 527.543 219.189 C 526.545 221.560, 525.098 224.953, 524.327 226.729 C 523.557 228.505, 522.284 231.777, 521.500 234 C 520.716 236.223, 519.440 239.495, 518.665 241.271 C 517.890 243.047, 515.586 248.775, 513.545 254 C 511.503 259.225, 509.459 264.400, 509.002 265.500 C 508.545 266.600, 506.598 271.550, 504.676 276.500 C 499.478 289.879, 487.954 318.991, 486.268 323 C 469.324 363.285, 459.521 384.440, 458.181 383.612 C 457.694 383.311, 457.013 380.013, 456.668 376.282 C 455.055 358.849, 452.875 341.460, 450.929 330.500 C 445.467 299.738, 445.269 300.730, 459.904 285.530 C 469.272 275.801, 479.548 264.726, 489.509 253.624 C 490.064 253.006, 497.826 244.519, 506.759 234.764 C 515.691 225.009, 523 216.395, 523 215.621 C 523 214.847, 522.391 213.980, 521.646 213.694 C 520.902 213.409, 511.876 213.150, 501.589 213.119 L 482.886 213.064 478.305 217.282 C 475.785 219.602, 467.524 228.278, 459.948 236.561 C 446.903 250.825, 435.658 260.991, 434.360 259.693 C 433.839 259.172, 436.541 251.992, 441.957 239.500 C 442.911 237.300, 444.734 232.800, 446.009 229.500 C 447.284 226.200, 448.710 222.996, 449.178 222.380 C 449.647 221.763, 450.136 219.513, 450.265 217.380 L 450.500 213.500 431.858 213.311 C 418.683 213.177, 412.790 213.470, 411.762 214.311 M 537.500 429.455 C 528.985 431.181, 520.166 433.874, 515.893 436.054 C 504.663 441.784, 489.980 467.536, 490.006 481.460 C 490.020 489.434, 495.387 497.563, 503.358 501.685 C 509.775 505.003, 523.577 514.363, 525.776 516.888 C 529.958 521.689, 529.876 527.408, 525.502 535.945 C 523.193 540.451, 516.589 547.339, 512.264 549.752 C 508.262 551.985, 501.530 551.317, 497.988 548.336 C 495.082 545.892, 494.874 545.323, 495.459 541.425 C 495.809 539.088, 496.956 535.397, 498.007 533.221 C 500.771 527.501, 502.972 520.764, 502.387 519.817 C 501.807 518.879, 474.972 518.690, 472.582 519.607 C 471.712 519.941, 471 521.293, 471 522.611 C 471 523.929, 469.022 529.168, 466.604 534.254 C 460.708 546.656, 459.585 550.748, 460.467 556.627 C 461.040 560.453, 462.058 562.321, 465.370 565.634 C 471.847 572.110, 477.699 573.500, 498.500 573.500 C 523.120 573.500, 532.066 570.848, 543.169 560.258 C 552.384 551.468, 556.389 541.911, 559.941 520.235 L 562.115 506.971 559.988 503.983 C 557.288 500.191, 553.674 497.484, 542.722 491.048 C 528.402 482.633, 524 477.804, 524 470.510 C 524 460.066, 536.179 449.501, 545.269 452.060 C 553.849 454.476, 554.798 457.170, 550.533 467 C 549.221 470.025, 548.487 472.850, 548.901 473.278 C 549.316 473.705, 556.321 473.930, 564.469 473.778 L 579.282 473.500 580.478 469.500 C 581.136 467.300, 582.873 463.152, 584.337 460.283 C 587.937 453.232, 588.127 442.936, 584.750 438.023 C 582.287 434.440, 576.787 431.062, 570.384 429.198 C 565.205 427.691, 545.441 427.845, 537.500 429.455 M 646 432.200 C 640.225 432.707, 631.069 432.936, 625.654 432.708 L 615.808 432.295 611.904 440.707 C 609.757 445.333, 608 449.303, 608 449.530 C 608 449.756, 606.922 452.317, 605.605 455.220 C 602.089 462.972, 590 492.480, 590 493.310 C 590 493.701, 589.132 495.929, 588.071 498.261 C 587.010 500.592, 584.945 505.650, 583.482 509.500 C 582.019 513.350, 579.330 520.325, 577.506 525 C 565.781 555.057, 561 567.725, 561 568.735 C 561 569.537, 563.819 569.829, 570.250 569.694 C 575.337 569.587, 589.175 569.647, 601 569.827 C 627.765 570.234, 631.329 569.784, 641.911 564.657 C 651.035 560.237, 659.620 548.399, 665.333 532.364 C 669.997 519.270, 669.776 507.058, 664.812 503.581 C 663.032 502.334, 662.892 501.835, 663.963 500.544 C 664.668 499.695, 665.801 499, 666.482 499 C 668.461 499, 675.593 492.891, 679.324 488 C 690.289 473.624, 695.057 453.329, 690.057 442.316 C 685.434 432.135, 674.734 429.678, 646 432.200 M 635.614 455.816 C 635.337 456.264, 634.146 459.302, 632.969 462.566 C 631.791 465.830, 629.811 470.750, 628.569 473.500 C 623.548 484.619, 622.550 488.096, 624.081 489.144 C 626.101 490.526, 639.803 489.467, 644.213 487.587 C 653.049 483.820, 658.435 476.338, 659.871 465.832 C 660.657 460.091, 660.547 459.456, 658.405 457.314 C 656.295 455.204, 655.210 455, 646.104 455 C 640.612 455, 635.891 455.367, 635.614 455.816 M 610.329 519.750 C 602.618 536.548, 599.549 546.149, 601.323 547.923 C 602.922 549.522, 612.978 549.227, 618.266 547.425 C 628.898 543.802, 637.236 532.168, 637.408 520.715 L 637.500 514.597 633.500 513.375 C 631.300 512.703, 625.987 512.119, 621.693 512.077 L 613.886 512 610.329 519.750" stroke="none" fill="#000000" fill-rule="evenodd"/>
</svg>