<svg xmlns="http://www.w3.org/2000/svg" width="1200" height="630" viewBox="0 0 1200 630" version="1.1">
	<path d="M 699.500 257.496 C 687.500 260.771, 679.858 266.431, 675.247 275.460 C 672.128 281.566, 671.033 293.532, 673.035 299.619 C 676.181 309.179, 684.727 316.533, 700.586 323.325 C 721.417 332.247, 726.616 336.370, 725.695 343.239 C 724.970 348.640, 722.832 351.419, 717.361 354.068 C 713.477 355.948, 710.966 356.364, 703.500 356.364 C 688.710 356.364, 682.636 352.162, 681.316 341.020 L 680.721 336 674 336 C 670.304 336, 665.136 336.294, 662.516 336.653 L 657.753 337.306 658.233 343.903 C 659.130 356.249, 665.555 365.907, 676.500 371.359 C 684.784 375.485, 689.589 376.211, 706.143 375.834 C 721.065 375.495, 721.686 375.394, 728.074 372.275 C 735.829 368.489, 744.111 360.259, 747.218 353.251 C 750.375 346.130, 750.729 335.908, 748.062 328.843 C 744.763 320.105, 739.687 316.149, 719.140 306.301 C 709.438 301.651, 700.284 296.693, 698.799 295.283 C 693.219 289.987, 694.284 281.895, 701.063 278.085 C 704.262 276.287, 706.681 275.817, 712.884 275.790 C 724.735 275.738, 730.853 279.415, 733.439 288.143 L 734.730 292.500 745.615 292.148 C 751.602 291.954, 756.856 291.463, 757.290 291.058 C 759.436 289.053, 753.698 274.435, 748.497 268.659 C 744.421 264.131, 735.385 259.248, 727.959 257.559 C 719.651 255.669, 706.303 255.640, 699.500 257.496 M 159.512 260.250 C 158.678 263.818, 154.118 285.589, 152.024 296 C 150.973 301.225, 149.164 310, 148.005 315.500 C 146.846 321, 144.767 330.900, 143.387 337.500 C 142.006 344.100, 139.780 354.504, 138.438 360.620 C 137.097 366.737, 136 372.474, 136 373.370 C 136 374.786, 137.574 375, 147.981 375 C 159.586 375, 159.978 374.929, 160.479 372.750 C 160.764 371.512, 162.792 361.725, 164.987 351 C 167.182 340.275, 169.216 330.488, 169.508 329.250 C 170.003 327.148, 170.565 327, 178.051 327 C 187.404 327, 191.502 328.431, 195.394 333.056 C 198.657 336.934, 204.145 348.490, 210.095 364.014 L 214.305 375 227.260 375 C 239.200 375, 240.159 374.863, 239.505 373.250 C 239.115 372.288, 237.722 368.691, 236.409 365.257 C 232.701 355.557, 222.566 335.894, 218.589 330.685 C 216.615 328.099, 215 325.801, 215 325.579 C 215 325.357, 216.912 324.858, 219.250 324.470 C 230.278 322.639, 241.629 314.575, 245.865 305.564 C 253.071 290.234, 248.916 269.868, 237.169 262.937 C 230.063 258.744, 223.332 258.030, 190.769 258.015 L 160.038 258 159.512 260.250 M 268.186 262.250 C 267.595 264.587, 265.957 272.125, 264.545 279 C 263.133 285.875, 260.428 298.925, 258.533 308 C 249.080 353.286, 245 373.199, 245 374.056 C 245 374.634, 262.624 375, 290.481 375 L 335.962 375 336.585 372.250 C 336.928 370.738, 337.837 366.960, 338.604 363.856 C 341.023 354.076, 344.373 355, 306.500 355 C 275.232 355, 273.005 354.883, 273.079 353.250 C 273.122 352.288, 274.592 345.425, 276.344 338 L 279.531 324.500 309.679 324.235 L 339.828 323.971 341.914 314.910 C 343.061 309.926, 344 305.433, 344 304.924 C 344 304.379, 331.657 304, 313.892 304 L 283.783 304 284.306 301.750 C 284.593 300.512, 285.842 294.663, 287.081 288.750 L 289.334 278 320.667 278 C 337.900 278, 352 277.887, 352 277.750 C 352.001 276.932, 355.138 261.197, 355.589 259.750 C 356.103 258.102, 353.608 258, 312.697 258 L 269.260 258 268.186 262.250 M 367.531 263.665 C 366.988 268.664, 346.848 368.318, 345.385 373.250 C 344.911 374.846, 345.886 375, 356.464 375 C 364.827 375, 368.193 374.651, 368.531 373.750 C 369.199 371.965, 372.550 356.466, 375.200 342.899 L 377.467 331.298 395.483 330.685 C 405.392 330.348, 415.942 329.602, 418.927 329.028 C 439.442 325.083, 451.972 309.150, 451.978 287 C 451.982 274.509, 446.020 265.089, 435.258 260.582 C 430.929 258.769, 427.691 258.556, 399.333 258.210 L 368.165 257.830 367.531 263.665 M 469.555 259.250 C 468.997 261.073, 466.747 271.653, 459.399 307 C 447.494 364.265, 445.971 371.484, 445.415 373.250 C 444.912 374.852, 445.913 375, 457.274 375 L 469.682 375 474.406 352.250 C 477.004 339.738, 479.312 328.938, 479.534 328.250 C 480.189 326.221, 495.696 326.601, 500 328.752 C 505.889 331.693, 511.037 341.020, 520.560 366 L 523.801 374.500 536.900 374.779 C 544.105 374.932, 550 374.847, 550 374.588 C 550 374.330, 547.289 367.927, 543.975 360.360 C 537.200 344.891, 532.542 336.173, 527.570 329.660 L 524.186 325.226 528.082 324.603 C 540.282 322.652, 551.792 314.487, 556.041 304.770 C 559.158 297.642, 559.908 284.251, 557.583 277.251 C 555.598 271.273, 550.137 264.621, 545.111 262.057 C 538.566 258.717, 530.549 258, 499.785 258 C 476.777 258, 469.850 258.286, 469.555 259.250 M 578.518 259.250 C 578.288 259.938, 576.468 268.375, 574.475 278 C 572.482 287.625, 568.888 304.950, 566.490 316.500 C 564.091 328.050, 560.525 345.230, 558.564 354.677 C 556.604 364.124, 555 372.561, 555 373.427 C 555 374.834, 559.728 375, 599.920 375 L 644.840 375 646.330 368.250 C 647.150 364.538, 648.122 360.038, 648.490 358.250 L 649.159 355 616.079 355 C 586.680 355, 583 354.825, 583 353.429 C 583 352.565, 584.420 345.590, 586.156 337.929 L 589.312 324 619.156 324 C 635.570 324, 649 323.804, 649 323.565 C 649 323.074, 651.717 309.693, 652.516 306.250 L 653.038 304 623.519 304 C 606.941 304, 594 303.610, 594 303.110 C 594 302.253, 597.433 284.850, 598.507 280.264 L 599.031 278.029 629.751 277.764 L 660.472 277.500 662.154 270.500 C 663.080 266.650, 663.874 262.262, 663.918 260.750 L 664 258 621.469 258 C 588.334 258, 578.845 258.276, 578.518 259.250 M 778.524 259.250 C 778.297 259.938, 776.065 270.625, 773.566 283 C 771.066 295.375, 765.866 320.523, 762.010 338.884 C 758.155 357.245, 755 372.882, 755 373.634 C 755 374.769, 762.701 375, 800.500 375 L 846 375 846.036 372.250 C 846.055 370.738, 846.723 366.800, 847.520 363.500 C 848.317 360.200, 848.976 356.938, 848.984 356.250 C 848.997 355.275, 841.742 355, 816 355 C 790.270 355, 782.999 354.725, 782.994 353.750 C 782.991 353.063, 784.433 346.087, 786.199 338.250 L 789.409 324 819.124 324 L 848.840 324 850.330 317.250 C 851.150 313.538, 852.122 309.038, 852.490 307.250 L 853.159 304 823.579 304 C 805.831 304, 794 303.625, 794 303.062 C 794 302.546, 794.639 299.284, 795.420 295.812 C 796.201 292.340, 797.358 286.913, 797.991 283.750 L 799.142 278 829.934 278 L 860.726 278 862.436 269.393 C 863.376 264.659, 864.386 260.159, 864.680 259.393 C 865.131 258.216, 858.534 258, 822.076 258 C 788.452 258, 778.846 258.276, 778.524 259.250 M 878.028 263.250 C 877.402 266.137, 873.340 285.600, 869.001 306.500 C 864.663 327.400, 859.737 350.928, 858.056 358.785 C 856.375 366.642, 855 373.504, 855 374.035 C 855 374.598, 859.688 375, 866.250 375 L 877.500 374.999 880.269 361.750 C 881.793 354.462, 885.327 337.475, 888.123 324 C 893.043 300.288, 893.570 298.189, 894.375 299.083 C 894.714 299.459, 918.839 359.117, 923.053 370 L 924.796 374.500 936.398 374.782 C 942.779 374.937, 948 374.846, 948 374.580 C 948 374.314, 951.413 357.762, 955.584 337.798 C 959.755 317.834, 964.196 296.421, 965.453 290.214 C 966.710 284.007, 967.956 278.710, 968.223 278.444 C 968.489 278.177, 978.125 278.081, 989.636 278.230 L 1010.564 278.500 1000.821 325 C 995.462 350.575, 991.060 372.288, 991.039 373.250 C 991.004 374.822, 992.223 375, 1003 375 C 1009.600 375, 1015 374.837, 1015 374.638 C 1015 374.132, 1019.315 353.332, 1023.015 336 C 1026.945 317.593, 1031.772 294.120, 1033.092 287 C 1034.930 277.086, 1033.011 278, 1051.985 278 L 1068.834 278 1069.977 272.750 C 1070.606 269.863, 1071.381 265.363, 1071.699 262.750 L 1072.279 258 1010.889 258.001 L 949.500 258.001 946.298 273.251 C 944.537 281.638, 940.966 298.738, 938.362 311.250 C 935.758 323.762, 933.374 333.998, 933.064 333.996 C 932.754 333.994, 928.577 324.207, 923.781 312.246 C 912.426 283.924, 905.328 266.411, 903.316 261.750 L 901.696 258 890.431 258 L 879.166 258 878.028 263.250 M 180 278.618 C 180 278.957, 178.650 285.727, 177 293.661 C 175.350 301.596, 174 308.293, 174 308.544 C 174 308.795, 179.287 308.991, 185.750 308.980 C 207.086 308.944, 216.212 306.522, 221.593 299.467 C 225.089 294.883, 226.024 287.213, 223.548 283.433 C 220.509 278.794, 216.704 278, 197.532 278 C 187.889 278, 180 278.278, 180 278.618 M 388.088 281.750 C 387.544 283.813, 386.151 290.225, 384.993 296 C 383.834 301.775, 382.620 307.585, 382.295 308.910 L 381.703 311.320 395.896 310.713 C 408.065 310.193, 410.857 309.754, 415.475 307.640 C 421.941 304.680, 426.603 298.829, 427.555 292.480 C 428.424 286.685, 427.051 282.978, 423.025 280.250 C 419.939 278.159, 418.621 278, 404.391 278 L 389.077 278 388.088 281.750 M 489.525 280.250 C 487.335 289.863, 484 306.449, 484 307.728 C 484 309.112, 485.909 309.227, 500.250 308.707 C 509.188 308.383, 518.036 307.651, 519.913 307.082 C 529.140 304.282, 535.757 295.682, 534.707 287.854 C 533.567 279.349, 529.776 278.013, 506.769 278.006 C 490.235 278, 490.032 278.026, 489.525 280.250" stroke="none" fill="#000000" fill-rule="evenodd"/>
</svg>