<svg xmlns="http://www.w3.org/2000/svg" width="900" height="900" viewBox="0 0 900 900" version="1.1">
	<path d="M 317.128 136.707 C 313.399 138.544, 306.804 146.328, 304.252 151.904 C 302.958 154.733, 302.683 157.846, 302.962 166.500 C 303.935 196.648, 303.260 213.815, 300.505 229 C 298.961 237.509, 297.250 247.866, 296.457 253.500 C 296.224 255.150, 295.296 259.875, 294.393 264 C 293.490 268.125, 292.661 271.950, 292.551 272.500 C 289.910 285.742, 288.979 287.186, 283.282 286.894 C 280.252 286.738, 250.229 287.733, 235 288.494 C 229.775 288.754, 216.275 289.217, 205 289.522 C 193.725 289.826, 178.969 290.570, 172.209 291.176 C 150.745 293.098, 144.605 291.507, 132.500 280.890 C 124.374 273.762, 120.804 272, 114.492 272 C 106.585 272, 100.678 276.200, 97.201 284.297 C 95.716 287.754, 95.642 297.696, 97.059 303.307 C 98.629 309.527, 104.191 316.560, 109.746 319.350 C 116.349 322.666, 128.542 322.906, 139 319.926 C 158.472 314.378, 172.169 312.540, 203.500 311.270 C 227.615 310.293, 282.602 310.266, 283.565 311.231 C 284.488 312.155, 282.487 327.704, 279.929 339.500 C 278.855 344.450, 277.765 349.625, 277.506 351 C 276.325 357.277, 273.488 369.585, 270.478 381.500 C 268.671 388.650, 266.229 398.550, 265.051 403.500 C 263.873 408.450, 262.036 415.650, 260.967 419.500 C 259.899 423.350, 258.354 429.875, 257.533 434 C 253.550 454.009, 250.314 469.019, 249.891 469.442 C 249.355 469.978, 225.716 471.647, 206.500 472.505 C 199.350 472.824, 187.425 473.512, 180 474.034 C 172.575 474.556, 161.382 474.986, 155.128 474.991 C 145.366 474.999, 143.924 474.797, 144.945 473.566 C 147.520 470.463, 165.553 462.872, 186.500 456.074 L 208.500 448.933 222 449.168 C 239.843 449.478, 242.844 448.853, 247.866 443.781 C 252.394 439.207, 254.346 432.962, 253.301 426.389 C 251.205 413.207, 240.010 411.665, 213 420.838 C 185.118 430.307, 161.933 438.642, 148 444.205 C 125.679 453.116, 102.269 464.550, 92.846 471.143 C 91.386 472.164, 89.902 473, 89.548 473 C 89.194 473, 86.422 474.587, 83.389 476.528 C 75.549 481.543, 73.393 487.674, 76.075 497.330 C 76.916 500.361, 77.906 501.483, 80.819 502.708 C 84.963 504.451, 94.312 504.810, 104 503.598 C 111.634 502.643, 111.539 502.653, 133.500 500.571 C 142.850 499.684, 152.300 498.731, 154.500 498.452 C 156.700 498.174, 165.250 497.528, 173.500 497.016 C 181.750 496.505, 195.700 495.609, 204.500 495.025 C 213.300 494.442, 225.563 493.860, 231.751 493.732 L 243.001 493.500 243.001 496.736 C 243 499.846, 242.373 503.058, 239.432 515 C 238.687 518.025, 237.812 522.075, 237.487 524 C 237.162 525.925, 235.818 531.775, 234.500 537 C 233.182 542.225, 231.863 547.886, 231.568 549.580 C 231.273 551.273, 230.302 554.648, 229.411 557.080 C 228.520 559.511, 227.429 562.850, 226.986 564.500 C 226.544 566.150, 224.382 572.701, 222.183 579.058 C 217.218 593.409, 216.654 596.266, 216.569 607.500 C 216.485 618.470, 218.155 621.505, 226.222 625.046 C 230.479 626.915, 233.351 627.376, 241.069 627.431 C 249.805 627.494, 251.148 627.239, 256.494 624.500 C 260.787 622.301, 264.333 619.230, 269.773 613 C 273.855 608.325, 279.514 602.108, 282.347 599.184 C 287.372 594, 293.309 590.455, 295.106 591.566 C 295.598 591.869, 296 594.415, 296 597.221 C 296 601.191, 294.864 604.885, 290.888 613.847 C 284.546 628.144, 283.601 634.739, 287.023 640.826 C 289.732 645.646, 298.096 650.531, 304.937 651.289 C 310.547 651.911, 317.946 649.751, 320.871 646.638 C 325.740 641.455, 327.141 629.500, 324.932 611.974 C 322.170 590.053, 323.035 577.900, 327.797 571.725 C 330.785 567.851, 345.275 555.943, 349.933 553.535 C 355.949 550.424, 356 550.534, 356 566.596 C 356 579.583, 356.220 581.500, 357.998 583.997 C 361.147 588.420, 367.378 589.537, 377.500 587.494 C 393.022 584.360, 396.050 576.167, 391.100 550.699 C 389.945 544.759, 389 538.435, 389 536.646 C 389 530.971, 393.366 523.922, 399.621 519.500 C 411.577 511.047, 415.212 507.746, 417.070 503.654 C 419.809 497.621, 419.493 492.540, 415.908 485 C 412.071 476.929, 412.194 470.351, 416.258 466.288 C 419.492 463.053, 420.564 463.762, 424.044 471.438 C 426.944 477.832, 428.482 484.865, 429.416 496 C 429.716 499.575, 430.425 507.900, 430.992 514.500 C 434.062 550.269, 434.956 569.927, 433.971 580 C 433.459 585.225, 432.813 590.400, 432.535 591.500 C 428.787 606.323, 428.018 610.162, 428.030 614 C 428.077 629.042, 442.023 637.449, 458.707 632.494 C 467.719 629.818, 472.982 621.791, 472.994 610.700 C 473.001 605.023, 471.652 602.168, 463.918 591.491 C 457.395 582.485, 457.251 582.013, 453.558 557.500 C 452.150 548.150, 450.511 537.840, 449.917 534.588 C 449.322 531.337, 448.696 526.837, 448.525 524.588 C 448.354 522.340, 447.736 515.775, 447.152 510 C 445.474 493.405, 445.256 489.204, 446.011 487.983 C 447.187 486.080, 459.390 485.067, 481.551 485.033 C 498.551 485.006, 504.227 485.361, 511.051 486.875 C 520.646 489.004, 525 490.771, 525 492.536 C 525 495.274, 517.869 508.967, 511.996 517.505 C 506.676 525.239, 498.817 540.391, 497.475 545.500 C 497.042 547.150, 496.506 549.175, 496.285 550 C 495.097 554.438, 494.911 566.257, 495.952 571.269 C 497.571 579.068, 501.445 583, 507.509 583 C 514.766 583, 527.782 577.590, 548 566.170 C 583.399 546.175, 596.672 535.492, 602.842 522.028 C 611.259 503.661, 604.061 492.903, 577.021 483.441 C 566.020 479.591, 560.183 471.932, 567.250 470.619 C 575.197 469.143, 595.494 469.862, 604.500 471.940 C 614.769 474.308, 628.981 479.102, 632.427 481.360 C 634.713 482.858, 634.731 483.003, 633.390 488.808 C 631.880 495.346, 624.838 515.186, 618.146 531.759 C 616.978 534.652, 614.571 542.302, 612.798 548.759 C 610.137 558.449, 609.568 562.335, 609.540 571 C 609.511 580.282, 609.811 582.150, 612.130 587.101 C 614.280 591.692, 615.553 593.089, 619.192 594.851 C 631.302 600.713, 646.192 594.505, 667.242 574.816 C 678.204 564.563, 682.025 562, 686.351 562 L 689.233 562 688.723 568.250 C 688.442 571.688, 687.974 575.400, 687.683 576.500 C 683.573 592.006, 683.212 596.536, 685.670 601.717 C 688.435 607.544, 692.144 609.188, 701.500 608.734 C 718.996 607.884, 724.914 599.937, 720.441 583.299 C 717.956 574.053, 717.923 573.870, 717.336 566 C 716.885 559.951, 717.169 557.436, 718.808 553 C 726.132 533.172, 732.867 512.202, 733.489 507.288 C 733.689 505.703, 734.750 500.828, 735.847 496.454 C 736.943 492.079, 738.601 484.675, 739.532 480 C 741.919 468.013, 745.844 460.959, 749.374 462.313 C 751.110 462.980, 751.416 470.715, 751.454 515 C 751.479 543.708, 750.801 572.385, 749.504 597.500 C 748.999 607.278, 747.993 642.470, 747.559 665.500 C 747.383 674.850, 747.671 687.684, 748.198 694.020 C 749.239 706.519, 749.601 704.246, 742.464 730 C 740.038 738.757, 739.917 740.078, 740.925 746.898 C 742.984 760.822, 747.582 764.504, 762.048 763.812 C 769.536 763.454, 771.414 762.992, 774.982 760.630 C 777.427 759.012, 779.828 756.341, 780.775 754.184 C 784.035 746.755, 781.802 731.261, 775.522 717.744 C 773.529 713.454, 772.675 709.634, 772.169 702.744 C 771.359 691.730, 771.456 435.276, 772.272 429.500 C 772.583 427.300, 772.921 420.353, 773.023 414.063 C 773.222 401.802, 773.886 398.901, 779.339 386.500 C 783.324 377.439, 784.532 371.029, 784.428 359.500 C 784.349 350.637, 782.849 346.614, 778.270 342.976 C 775.821 341.030, 774.671 340.837, 768.333 341.305 C 756.006 342.214, 748.916 346.689, 744.385 356.420 C 741.667 362.258, 741.423 367.779, 743.632 373.500 C 744.481 375.700, 745.886 379.865, 746.754 382.755 C 748.546 388.722, 748.344 389.901, 741.618 412.841 C 739.628 419.629, 738.001 426.154, 738.003 427.341 C 738.007 430.040, 732.655 450.001, 729.247 460 C 726.324 468.573, 721.016 479.376, 717.997 482.897 L 715.942 485.294 713.335 482.897 C 711.901 481.579, 709.920 478.700, 708.931 476.500 C 706.704 471.541, 703.941 448.432, 703.932 434.685 C 703.926 425.673, 704.292 423.521, 707.110 416 C 709.863 408.652, 710.309 406.144, 710.397 397.500 C 710.517 385.882, 709.964 383.333, 706.525 379.621 C 701.196 373.871, 689.770 372.033, 684.607 376.095 C 679.645 379.998, 677.757 385.407, 677.361 396.851 C 677.026 406.567, 676.786 407.595, 673.616 412.867 C 671.754 415.965, 667.435 424.339, 664.019 431.475 C 657.766 444.539, 652.227 453.917, 648.728 457.366 C 646.628 459.436, 647.861 459.586, 626.500 454.658 C 620.450 453.263, 613.025 451.865, 610 451.553 C 602.217 450.749, 587.667 447.870, 586.616 446.926 C 584.929 445.411, 603.726 415.091, 609.217 410.471 C 610.903 409.052, 616.867 405.697, 622.470 403.014 C 632.580 398.174, 635.725 395.457, 638.688 389 C 644.559 376.205, 642.513 362.273, 634.230 358.657 C 629.007 356.377, 619.634 357.139, 613.276 360.360 C 607.814 363.128, 601.931 370.071, 597.484 379 C 595.977 382.025, 592.032 388.775, 588.717 394 C 576.034 413.991, 569.188 425.346, 559.174 443 C 550.873 457.636, 543.535 467.536, 539.860 469.058 C 537.556 470.012, 535.331 469.934, 528.740 468.669 C 524.208 467.798, 517.215 466.609, 513.199 466.025 C 509.184 465.442, 504.551 464.410, 502.903 463.732 L 499.908 462.500 503.293 459 C 511.441 450.575, 522.081 444.367, 535.002 440.499 C 544.133 437.766, 545.547 436.920, 552.614 429.955 C 559.695 422.978, 563.250 416.158, 563.250 409.553 C 563.250 403.297, 561.935 400.535, 557.985 398.492 C 551.870 395.330, 541.737 396.497, 531.298 401.565 C 523.260 405.468, 520.772 408.059, 518.254 415.147 C 516.921 418.901, 515.755 420.363, 513.081 421.632 C 509.873 423.154, 496.972 431.971, 494.370 434.419 C 493.739 435.014, 492.018 436.372, 490.547 437.438 C 489.077 438.503, 486.889 440.234, 485.687 441.283 C 478.307 447.721, 463.089 454.502, 453.488 455.630 C 444.861 456.644, 445.080 457.487, 445.617 425.256 C 446.198 390.412, 447.028 382.583, 451.017 374.312 C 462.233 351.055, 462.909 341.486, 453.816 334.709 C 449.598 331.565, 437.866 331.141, 431.460 333.901 C 422.259 337.865, 420.062 343.939, 421.176 362.332 C 421.918 374.575, 420.985 384.381, 418.667 388.708 C 417.844 390.244, 416.290 394.200, 415.213 397.500 C 411.900 407.647, 402.049 441.150, 401.425 444.389 C 401.220 445.456, 400.352 448.617, 399.498 451.414 C 398.644 454.211, 397.475 458.075, 396.901 460 C 396.327 461.925, 394.920 465.903, 393.776 468.841 L 391.694 474.181 387.219 473.510 C 384.758 473.141, 382.158 472.614, 381.442 472.339 C 379.737 471.685, 378.444 467.702, 377.921 461.500 C 377.252 453.554, 377.432 415.852, 378.215 400.226 C 378.904 386.452, 379.050 385.733, 382.366 379.726 C 386.410 372.399, 387.258 368.937, 387.210 359.934 C 387.148 348.422, 382.136 341.968, 373.300 342.024 C 366.755 342.065, 361.877 343.727, 358.397 347.100 C 353.661 351.690, 352.703 355.419, 353.464 366.289 C 354.151 376.094, 353.461 379.540, 347.653 395.322 C 345.544 401.053, 343.054 409.490, 341.550 416 C 341.359 416.825, 340.272 420.875, 339.134 425 C 337.129 432.262, 333.630 447.443, 332.581 453.428 C 331.086 461.959, 329.674 467.635, 328.769 468.750 C 327.661 470.116, 318.265 470.456, 316.292 469.201 C 314.731 468.209, 314.333 463.023, 312.901 425 C 311.698 393.065, 312.090 361.526, 313.994 337 C 315.123 322.450, 316.701 310.293, 317.662 308.738 C 318.041 308.125, 328.762 308.013, 346.880 308.433 C 362.621 308.798, 376.175 309.106, 377 309.117 C 377.825 309.129, 388.625 309.546, 401 310.045 C 413.375 310.544, 432.050 311.214, 442.500 311.533 C 452.950 311.852, 472.975 312.550, 487 313.085 C 501.025 313.619, 528.925 314.277, 549 314.546 C 596.151 315.180, 594.929 315.072, 604.406 319.410 C 614.910 324.218, 622.431 324.523, 629.920 320.447 C 640.004 314.959, 643.659 306.031, 640.539 294.507 C 639.075 289.097, 637.878 287.048, 633.832 283.023 C 627.888 277.110, 623.761 275.585, 615.500 276.248 C 609.074 276.764, 604.523 278.853, 594.885 285.710 C 585.336 292.504, 591.046 292.148, 490.500 292.212 C 440.450 292.244, 396.350 291.991, 392.500 291.651 C 388.650 291.311, 379.425 290.784, 372 290.478 C 364.575 290.173, 354.225 289.484, 349 288.947 C 343.775 288.410, 337.250 287.763, 334.500 287.509 C 331.750 287.255, 327.304 286.761, 324.621 286.412 L 319.742 285.777 320.424 275.138 C 320.798 269.287, 321.514 261.800, 322.014 258.500 C 322.513 255.200, 323.181 249.350, 323.496 245.500 C 323.811 241.650, 324.705 234.675, 325.481 230 C 326.257 225.325, 327.153 218.473, 327.471 214.773 C 328.149 206.909, 331.263 196.177, 334.514 190.500 C 335.774 188.300, 337.973 183.211, 339.402 179.190 C 345.166 162.974, 340.908 142.159, 330.626 136.285 C 327.601 134.558, 321.077 134.761, 317.128 136.707 M 381 223.771 C 379.625 223.932, 376.416 225, 373.870 226.146 C 366.047 229.666, 362.531 238.890, 365.090 249.180 C 365.817 252.106, 366.448 254.725, 366.492 255 C 367 258.207, 373.207 265.503, 377.200 267.589 C 381.541 269.857, 390.772 269.413, 394.664 266.750 C 397.347 264.914, 404.145 255, 402.721 255 C 402.499 255, 402.669 252.863, 403.098 250.250 C 404.641 240.870, 401.016 229.206, 395.417 225.538 C 392.992 223.949, 386.405 223.142, 381 223.771 M 427 241.890 C 421.111 245.623, 418.561 250.088, 418.648 256.512 C 418.833 270.104, 431.119 277.817, 443.500 272.114 C 458.388 265.256, 460.942 247.802, 448.015 241.250 C 441.378 237.886, 432.911 238.144, 427 241.890 M 284 419.472 C 284 419.731, 282.678 425.019, 281.062 431.222 C 277.999 442.983, 273.471 467.805, 274.248 468.582 C 275.205 469.538, 290.512 469.820, 291.619 468.902 C 292.868 467.865, 292.780 463.743, 290.956 438 C 289.635 419.350, 289.552 419, 286.481 419 C 285.116 419, 284 419.212, 284 419.472 M 680.574 443.278 C 679.041 446.150, 677.038 449.400, 676.125 450.500 C 671.878 455.614, 666.460 464.793, 667.233 465.566 C 668.700 467.033, 686.882 472.691, 687.969 472.019 C 688.987 471.390, 689.133 469.282, 688.604 462.851 C 688.226 458.258, 687.754 453.600, 687.556 452.500 C 687.357 451.400, 686.876 448.151, 686.486 445.280 C 685.435 437.541, 683.913 437.025, 680.574 443.278 M 350.640 452.269 C 349.117 453.792, 347.969 456.091, 347.926 457.705 C 347.847 460.648, 347.370 463.972, 346.474 467.801 C 345.955 470.021, 346.137 470.091, 351.639 469.801 L 357.341 469.500 357.254 465.750 C 357.206 463.688, 357.129 460.250, 357.083 458.111 C 357.036 455.918, 356.189 453.220, 355.140 451.925 L 353.281 449.628 350.640 452.269 M 656.208 491.721 C 650.252 500.124, 643.156 517.337, 639.482 532.294 C 636.906 542.776, 635.540 560.837, 637.196 562.518 C 638.477 563.819, 652.437 560.003, 658 556.830 C 661.052 555.090, 669.125 548.148, 676.141 541.232 C 687.247 530.282, 688.863 528.267, 689.456 524.635 C 690.646 517.345, 691.050 499.963, 690.073 498.136 C 689.068 496.259, 682.668 493.946, 672 491.603 C 658.562 488.653, 658.382 488.654, 656.208 491.721 M 341.477 493.038 C 340.744 494.223, 339.136 502.450, 338.454 508.500 C 338.082 511.800, 337.642 514.731, 337.476 515.013 C 337.310 515.295, 336.881 518.737, 336.521 522.661 C 336.161 526.586, 335.251 532.430, 334.499 535.648 C 333.746 538.867, 333.500 541.876, 333.951 542.336 C 334.402 542.795, 337.410 541.405, 340.636 539.245 C 343.861 537.086, 348.827 533.844, 351.671 532.042 C 354.570 530.205, 357.044 527.828, 357.301 526.633 C 357.866 524.010, 356.694 494.340, 356 493.696 C 355.186 492.941, 341.908 492.339, 341.477 493.038 M 267.006 495.250 C 265.890 497.888, 262.951 509.392, 262.470 513 C 262.287 514.375, 261.157 520, 259.959 525.500 C 258.760 531, 257.594 536.625, 257.367 538 C 257.140 539.375, 256.082 545, 255.016 550.500 C 251.116 570.619, 248.998 582.544, 248.999 584.392 C 249 586.100, 249.564 586.226, 254.760 585.683 C 263.275 584.793, 270.648 582.126, 278.435 577.122 C 282.249 574.670, 286.074 572.073, 286.935 571.351 C 287.796 570.629, 289.245 569.467, 290.156 568.769 C 291.627 567.642, 291.865 563.475, 292.288 531.500 C 292.549 511.700, 292.554 494.938, 292.298 494.250 C 291.962 493.346, 288.531 493, 279.895 493 C 268.464 493, 267.917 493.095, 267.006 495.250 M 545.764 498.112 C 539.452 501.645, 524.067 533.218, 524.013 542.750 C 523.998 545.396, 524.252 545.430, 530.341 543.598 C 532.903 542.827, 535 542.357, 535 542.553 C 535 543.100, 548.865 537.253, 554.431 534.360 C 562.562 530.133, 566.176 527.546, 573 521.065 L 579.500 514.893 576.500 512.451 C 574.850 511.109, 573.158 510.008, 572.740 510.005 C 572.322 510.002, 569.767 508.445, 567.062 506.544 C 559.265 501.063, 548.269 496.710, 545.764 498.112" stroke="none" fill="#000000" fill-rule="evenodd"/>
</svg>