<svg xmlns="http://www.w3.org/2000/svg" width="840" height="463" viewBox="0 0 840 463" version="1.1">
	<path d="M 630 43.749 C 626.975 43.886, 618.650 44.705, 611.500 45.569 C 541.529 54.030, 497.878 85.533, 482.474 138.687 C 479.892 147.595, 476.439 172.283, 477.528 174.045 C 477.889 174.630, 496.455 175, 525.455 175 L 572.792 175 573.519 166.750 C 576.711 130.536, 598.327 114.585, 644 114.740 C 673.305 114.840, 693.950 121.954, 704.243 135.500 C 709.617 142.572, 711.311 149.108, 710.824 160.887 C 710.481 169.177, 710.027 171.230, 707.525 175.804 C 702.337 185.288, 694.209 190.910, 680 194.843 C 668.003 198.163, 657.073 199.230, 632 199.528 L 608.500 199.807 608.500 234.985 L 608.500 270.162 628 270.072 C 684.180 269.811, 708.756 277.120, 717.750 296.765 C 719.690 301.003, 720.410 304.518, 720.778 311.538 C 722.132 337.431, 709.330 352.886, 680.460 360.211 C 672.286 362.285, 669.307 362.480, 646.500 362.434 C 622.721 362.385, 621.024 362.254, 611.761 359.752 C 583.044 351.994, 569.738 336.626, 566.806 307.829 L 565.704 297 517.198 297 L 468.691 297 469.333 309.250 C 470.588 333.231, 475.105 351.506, 484.099 369 C 511.524 422.345, 578.006 447.712, 669 439.551 C 702.586 436.539, 727.184 430.256, 751.500 418.478 C 767.319 410.815, 777.115 403.952, 788.555 392.518 C 809.460 371.623, 818.956 348.638, 818.987 318.860 C 819.021 286.033, 808.020 262.223, 784.848 244.971 C 778.370 240.148, 765.524 233.173, 756.038 229.329 C 753.699 228.381, 753.925 228.148, 760.589 224.646 C 770.118 219.639, 782.678 209.521, 788.895 201.843 C 794.874 194.459, 801.126 182.255, 803.671 173 C 806.290 163.476, 806.261 134.337, 803.623 124.500 C 791.833 80.543, 751.712 53.500, 686.500 45.558 C 674.687 44.119, 643.726 43.128, 630 43.749 M 21 48.448 C 21 48.694, 56.760 97.632, 100.466 157.198 L 179.933 265.500 179.966 350.750 L 180 436 229 436 L 278 436 278 350.535 L 278 265.070 307.315 225.785 C 323.439 204.178, 359.482 155.937, 387.411 118.582 C 415.340 81.227, 438.422 50.065, 438.703 49.332 C 439.125 48.232, 429.127 48, 381.310 48 L 323.406 48 278.648 112.750 C 228.889 184.735, 231.154 181.516, 230.669 180.927 C 230.476 180.692, 218.699 163.850, 204.499 143.500 C 190.299 123.150, 169.454 93.338, 158.177 77.250 L 137.673 48 79.336 48 C 47.251 48, 21 48.202, 21 48.448 M 361 235 L 361 270 410.500 270 L 460 270 460 235 L 460 200 410.500 200 L 361 200 361 235" stroke="none" fill="#000000" fill-rule="evenodd"/>
</svg>