<?xml version="1.0" standalone="no"?>
<!DOCTYPE svg PUBLIC "-//W3C//DTD SVG 20010904//EN"
 "http://www.w3.org/TR/2001/REC-SVG-20010904/DTD/svg10.dtd">
<svg version="1.0" xmlns="http://www.w3.org/2000/svg"
 width="512.000000pt" height="512.000000pt" viewBox="0 0 512.000000 512.000000"
 preserveAspectRatio="xMidYMid meet">

<g transform="translate(0.000000,512.000000) scale(0.100000,-0.100000)"
fill="#000000" stroke="none">
<path d="M2380 4835 c-175 -36 -312 -108 -444 -234 -185 -177 -271 -381 -283
-668 l-6 -143 -298 0 c-180 0 -319 -4 -351 -11 -152 -32 -264 -144 -297 -297
-15 -70 -16 -2824 -1 -2902 23 -122 100 -224 209 -278 l56 -27 1595 0 1595 0
57 28 c109 54 185 154 208 277 15 77 14 2832 -1 2902 -32 152 -144 264 -297
297 -32 7 -168 11 -351 11 l-298 0 -6 143 c-12 287 -98 491 -283 668 -136 129
-287 206 -468 238 -80 15 -256 12 -336 -4z m319 -320 c199 -47 371 -215 427
-415 8 -30 18 -112 21 -182 l6 -128 -593 0 -593 0 6 128 c3 70 13 152 21 182
56 200 226 367 424 414 76 19 203 19 281 1z m-1047 -1202 c3 -145 5 -161 27
-196 61 -99 193 -101 265 -3 19 24 22 46 26 189 l5 162 585 0 585 0 5 -162 c4
-143 7 -165 26 -189 72 -98 204 -96 265 3 22 35 24 51 27 196 l4 157 299 0
c286 0 300 -1 319 -20 20 -20 20 -33 20 -1418 0 -1249 -2 -1400 -16 -1420
l-15 -22 -1519 0 -1519 0 -15 22 c-14 20 -16 171 -16 1420 0 1385 0 1398 20
1418 19 19 33 20 319 20 l299 0 4 -157z"/>
</g>
</svg>
