<?xml version="1.0" standalone="no"?>
<!DOCTYPE svg PUBLIC "-//W3C//DTD SVG 20010904//EN"
 "http://www.w3.org/TR/2001/REC-SVG-20010904/DTD/svg10.dtd">
<svg version="1.0" xmlns="http://www.w3.org/2000/svg"
 width="900.000000pt" height="777.000000pt" viewBox="0 0 900.000000 777.000000"
 preserveAspectRatio="xMidYMid meet">

<g transform="translate(0.000000,777.000000) scale(0.100000,-0.100000)"
fill="#000000" stroke="none">
<path d="M4028 7148 c-23 -40 -281 -487 -891 -1543 -143 -247 -360 -623 -482
-835 -236 -409 -940 -1629 -1210 -2095 -89 -154 -275 -477 -414 -717 l-252
-437 137 -238 c75 -131 148 -257 161 -280 14 -24 28 -45 33 -48 4 -2 56 80
116 183 59 103 221 383 359 622 138 239 356 617 485 840 128 223 297 515 375
650 78 135 203 351 277 480 75 129 259 449 410 710 151 261 396 684 543 940
373 648 376 653 384 643 4 -4 96 -161 203 -348 108 -187 388 -673 623 -1080
235 -407 527 -913 650 -1125 122 -212 327 -566 455 -787 l232 -403 334 0 333
0 -33 58 c-18 31 -194 336 -391 677 -367 636 -634 1098 -1285 2225 -204 355
-433 751 -508 880 -74 129 -200 348 -280 485 -79 138 -180 313 -225 390 -44
77 -88 153 -97 168 l-17 29 -25 -44z"/>
<path d="M4382 7023 c50 -87 143 -248 206 -358 63 -110 205 -355 315 -545 206
-357 344 -596 544 -942 64 -112 146 -255 183 -318 37 -63 101 -173 142 -245
41 -71 236 -409 433 -750 197 -341 415 -719 485 -840 69 -121 220 -381 333
-578 114 -196 207 -359 207 -362 0 -3 -975 -5 -2167 -5 l-2168 0 -157 -273
c-86 -149 -160 -280 -164 -289 -6 -17 133 -18 2826 -18 2659 0 2832 1 2826 17
-6 16 -77 138 -551 958 -89 154 -205 354 -257 445 -144 251 -678 1176 -883
1530 -100 173 -241 416 -312 540 -71 124 -257 446 -412 715 -156 270 -344 596
-419 725 -74 129 -182 316 -240 415 -57 99 -124 215 -149 258 l-45 77 -334 0
-333 0 91 -157z"/>
<path d="M4032 5573 c-22 -37 -89 -153 -149 -258 -60 -104 -255 -442 -433
-750 -178 -308 -371 -643 -430 -745 -99 -173 -460 -797 -970 -1680 -119 -206
-313 -541 -430 -745 -117 -203 -251 -434 -297 -513 -45 -79 -83 -145 -83 -147
0 -3 1468 -4 3262 -3 l3262 3 163 280 c89 154 162 283 163 287 0 5 -1316 9
-2925 10 l-2925 3 93 160 c51 88 172 297 269 465 97 168 310 537 473 820 164
283 365 632 448 775 82 143 182 316 222 385 111 193 478 827 575 996 l87 150
-163 283 c-90 156 -165 285 -167 288 -3 2 -23 -26 -45 -64z"/>
</g>
</svg>
