<?xml version="1.0" standalone="no"?>
<!DOCTYPE svg PUBLIC "-//W3C//DTD SVG 20010904//EN"
 "http://www.w3.org/TR/2001/REC-SVG-20010904/DTD/svg10.dtd">
<svg version="1.0" xmlns="http://www.w3.org/2000/svg"
 width="512.000000pt" height="512.000000pt" viewBox="0 0 512.000000 512.000000"
 preserveAspectRatio="xMidYMid meet">

<g transform="translate(0.000000,512.000000) scale(0.100000,-0.100000)"
fill="#000000" stroke="none">
<path d="M2373 4806 c-218 -42 -401 -137 -565 -294 -333 -320 -427 -805 -239
-1225 142 -317 448 -556 794 -622 102 -19 292 -19 394 0 697 132 1088 887 788
1522 -62 132 -134 231 -245 336 -143 135 -289 216 -489 269 -99 26 -334 34
-438 14z m368 -261 c298 -59 541 -291 625 -595 29 -103 26 -340 -4 -444 -82
-285 -303 -502 -587 -578 -113 -30 -317 -30 -430 0 -285 76 -504 292 -587 579
-30 103 -32 341 -4 443 120 434 536 684 987 595z"/>
<path d="M1710 2245 c-588 -95 -1063 -556 -1174 -1140 -56 -296 -15 -475 144
-636 82 -83 177 -137 278 -158 75 -15 3129 -15 3204 0 101 21 196 75 278 158
163 165 201 347 139 653 -100 496 -480 923 -954 1071 -202 63 -156 61 -1030
63 -637 2 -817 0 -885 -11z m1681 -254 c370 -72 657 -280 825 -595 124 -233
171 -547 101 -682 -45 -88 -114 -137 -218 -153 -89 -15 -2990 -15 -3079 0
-114 18 -201 89 -233 190 -21 64 -22 179 -2 295 90 520 510 908 1034 954 142
12 1503 5 1572 -9z"/>
</g>
</svg>
